<svg width="70" height="80" viewBox="0 0 70 80" fill="none" xmlns="http://www.w3.org/2000/svg">
<path d="M34.9998 58.3C31.0561 53.3516 28.7373 49.0141 27.9686 45.3031C24.4452 31.5531 45.5639 31.5531 42.0405 45.3031C41.1889 49.0922 38.8702 53.4281 35.0092 58.3H34.9998ZM56.5858 69.7422C50.0139 72.6031 43.5123 68.0422 37.9452 61.8563C54.1795 41.5328 45.1498 30.6063 34.9998 30.6063C26.4186 30.6063 21.6936 37.8734 23.5498 46.3094C24.6327 50.8703 27.492 56.0578 32.0545 61.8563C26.9717 67.4891 22.5936 70.0891 18.7498 70.4375C10.9373 71.5984 4.82641 64.0219 7.60922 56.2047C9.9686 50.0859 25.0655 20.0828 25.7139 18.4609C28.1749 13.7625 29.7077 9.49219 34.992 9.49219C40.0452 9.49219 41.7733 13.5453 44.4249 18.8469C50.0499 29.8813 58.3858 46.5781 62.3686 56.2047C64.4264 61.3719 62.1545 67.3438 56.5858 69.7422ZM63.9295 48.4734C43.792 5.61407 42.6764 5 34.9998 5C27.8873 5 24.8639 9.94844 21.7717 16.3734C5.18422 49.5469 3.57641 54.2484 3.43735 54.6578C-0.503276 65.4906 7.61547 75 17.442 75C20.8342 75 26.9123 74.0531 34.9998 65.25C44.1686 75.2156 50.8217 75 52.5577 75C62.3842 75.0078 70.503 65.4906 66.5592 54.6578C66.5623 54.05 63.9311 48.5797 63.9311 48.4734H63.9295Z" fill="black"/>
</svg>