<svg width="558" height="416" viewBox="0 0 558 416" fill="none" xmlns="http://www.w3.org/2000/svg">
<path d="M165.966 279.399C163.265 282.238 161.719 286.105 161.665 290.159C161.61 294.213 163.05 298.126 165.673 301.048L256.431 401.708C257.75 403.171 259.329 404.339 261.073 405.143C262.818 405.947 264.695 406.371 266.594 406.391C268.493 406.411 270.377 406.026 272.136 405.258C273.895 404.49 275.494 403.355 276.84 401.919L553.782 106.432C555.294 104.818 556.451 102.862 557.168 100.707C557.884 98.5514 558.142 96.2519 557.923 93.9762C557.703 91.7006 557.012 89.5062 555.899 87.5537C554.787 85.6011 553.281 83.9397 551.492 82.6909L442.593 6.68281C439.869 4.76221 436.613 3.9011 433.369 4.24334C430.124 4.58558 427.087 6.11043 424.766 8.56319L165.966 279.399Z" fill="#3F3D56"/>
<path d="M555.681 87.1794C555.131 88.0836 554.495 88.9236 553.782 89.6856L277.492 390.754C276.146 392.19 274.547 393.325 272.788 394.093C271.029 394.861 269.145 395.246 267.246 395.227C265.346 395.207 263.47 394.783 261.725 393.979C259.98 393.175 258.402 392.007 257.082 390.543L164.371 285.697C163.74 284.993 163.172 284.227 162.677 283.408C159.122 289.269 160.96 295.821 165.673 301.048L256.431 401.708C257.751 403.171 259.329 404.339 261.074 405.143C262.819 405.947 264.695 406.371 266.594 406.391C268.494 406.411 270.378 406.025 272.137 405.258C273.896 404.49 275.495 403.355 276.84 401.919L553.782 106.432C556.113 103.944 557.574 100.673 557.919 97.1669C558.265 93.6611 557.475 90.1346 555.681 87.1794Z" fill="#EC7000"/>
<path d="M530.039 90.8214L518.769 83.1213C519.956 85.3881 520.392 88.0189 520.006 90.585C519.619 93.1512 518.434 95.5016 516.642 97.2535C514.85 99.0053 512.557 100.055 510.137 100.233C507.717 100.41 505.312 99.7037 503.315 98.2294L430.386 44.5007C428.728 43.2814 427.423 41.5875 426.62 39.6121C425.817 37.6367 425.548 35.4592 425.844 33.328C426.14 31.1968 426.988 29.1974 428.293 27.5579C429.598 25.9184 431.306 24.7046 433.223 24.055L427.417 20.0879C426.663 19.5731 425.768 19.3507 424.88 19.4576C423.992 19.5645 423.165 19.9943 422.537 20.6754L177.2 279.04C176.834 279.437 176.545 279.908 176.352 280.426C176.158 280.944 176.063 281.499 176.072 282.057C176.082 282.615 176.195 283.165 176.405 283.675C176.616 284.186 176.92 284.646 177.299 285.029L266.399 378.064C267.138 378.81 268.118 379.219 269.134 379.204C270.149 379.189 271.118 378.751 271.837 377.983L530.696 97.3168C531.111 96.874 531.427 96.3371 531.622 95.7457C531.817 95.1543 531.886 94.5235 531.822 93.8999C531.759 93.2764 531.566 92.676 531.258 92.1431C530.949 91.6103 530.532 91.1586 530.039 90.8214Z" fill="white"/>
<path d="M246.881 221.99L322.143 298.033L501.159 108.503L410.307 45.1343L246.881 221.99Z" fill="#E6E6E6"/>
<path d="M494.201 155.277C494.697 155.785 495.357 156.068 496.043 156.068C496.729 156.068 497.389 155.785 497.885 155.277L513.54 138.502C514.027 137.978 514.301 137.268 514.301 136.528C514.301 135.788 514.027 135.079 513.54 134.555C513.043 134.047 512.384 133.764 511.698 133.764C511.012 133.764 510.352 134.047 509.856 134.555L494.201 151.33C493.714 151.854 493.44 152.564 493.44 153.304C493.44 154.044 493.714 154.753 494.201 155.277Z" fill="#3F3D56"/>
<path d="M467.829 183.538C468.318 184.06 468.981 184.353 469.671 184.353C470.362 184.353 471.024 184.06 471.513 183.538L487.168 166.762C487.655 166.238 487.929 165.528 487.928 164.789C487.928 164.049 487.653 163.34 487.165 162.817C486.677 162.294 486.015 162 485.325 162C484.635 161.999 483.973 162.292 483.484 162.814L467.829 179.59C467.342 180.114 467.068 180.824 467.068 181.564C467.068 182.304 467.342 183.014 467.829 183.538Z" fill="#3F3D56"/>
<path d="M248.62 306.102C258.329 306.102 266.201 297.667 266.201 287.262C266.201 276.857 258.329 268.422 248.62 268.422C238.91 268.422 231.039 276.857 231.039 287.262C231.039 297.667 238.91 306.102 248.62 306.102Z" fill="#EC7000"/>
<path d="M418.816 407.562H45.0029V406.041H419.073L418.816 407.562Z" fill="#3F3D56"/>
<path d="M376.896 124.464H191.052V163.783H376.896V124.464Z" fill="#E6E6E6"/>
<path d="M376.896 62.334H191.052V101.654H376.896V62.334Z" fill="#E6E6E6"/>
<path d="M376.896 0H191.052V39.3197H376.896V0Z" fill="#E6E6E6"/>
<path d="M195.014 35.074H372.935V4.24561H195.014V35.074Z" fill="white"/>
<path d="M195.014 97.5452H372.935V66.7168H195.014V97.5452Z" fill="white"/>
<path d="M195.014 159.538H372.934V128.709H195.014V159.538Z" fill="white"/>
<path d="M210.589 31.1494C216.642 31.1494 221.549 25.891 221.549 19.4045C221.549 12.918 216.642 7.65967 210.589 7.65967C204.536 7.65967 199.629 12.918 199.629 19.4045C199.629 25.891 204.536 31.1494 210.589 31.1494Z" fill="#EC7000"/>
<path d="M344.969 14.8088H236.798V17.3621H344.969V14.8088Z" fill="#EC7000"/>
<path d="M344.969 21.447H236.798V24.0003H344.969V21.447Z" fill="#EC7000"/>
<path d="M210.589 93.9941C216.642 93.9941 221.549 88.7357 221.549 82.2492C221.549 75.7627 216.642 70.5044 210.589 70.5044C204.536 70.5044 199.629 75.7627 199.629 82.2492C199.629 88.7357 204.536 93.9941 210.589 93.9941Z" fill="#CCCCCC"/>
<path d="M344.969 77.6533H236.798V80.2066H344.969V77.6533Z" fill="#CCCCCC"/>
<path d="M344.969 84.2917H236.798V86.845H344.969V84.2917Z" fill="#CCCCCC"/>
<path d="M210.589 156.124C216.642 156.124 221.549 150.865 221.549 144.379C221.549 137.892 216.642 132.634 210.589 132.634C204.536 132.634 199.629 137.892 199.629 144.379C199.629 150.865 204.536 156.124 210.589 156.124Z" fill="#CCCCCC"/>
<path d="M344.969 139.783H236.798V142.336H344.969V139.783Z" fill="#CCCCCC"/>
<path d="M344.969 146.421H236.798V148.975H344.969V146.421Z" fill="#CCCCCC"/>
<path d="M8.33626 412.193L13.1306 412.796C16.9176 415.243 21.3625 416.164 26.2853 415.977C26.9724 415.954 27.6423 415.74 28.2284 415.355C28.8146 414.97 29.2967 414.428 29.627 413.782C29.9136 413.215 30.0742 412.585 30.0964 411.941C30.1186 411.297 30.0018 410.656 29.755 410.068C29.5082 409.48 29.1381 408.961 28.6735 408.551C28.2089 408.141 27.6624 407.852 27.0765 407.706L23.4335 406.797L14.6431 397.584L9.33997 387.299L1.63679 388.245L0.0331593 401.309C-0.170274 403.923 0.58201 406.519 2.13121 408.55C3.68042 410.581 5.90533 411.887 8.33626 412.193Z" fill="#2F2E41"/>
<path d="M83.0066 405.584L87.7056 406.768C91.2078 409.662 95.5257 411.119 100.436 411.534C101.121 411.596 101.81 411.465 102.433 411.154C103.056 410.844 103.593 410.364 103.99 409.762C104.335 409.234 104.561 408.628 104.652 407.99C104.742 407.353 104.694 406.702 104.512 406.087C104.329 405.473 104.017 404.912 103.599 404.449C103.181 403.985 102.668 403.631 102.102 403.414L98.5793 402.066L90.8256 391.84L86.6506 380.974H78.8969L75.9147 393.757C75.4347 396.329 75.9061 399 77.2293 401.207C78.5525 403.414 80.624 404.983 83.0066 405.584Z" fill="#2F2E41"/>
<path d="M86.8587 381.697L78.0905 383.143L64.2636 308.335L40.3195 264.607L11.3169 391.816L0.525195 393.984C1.7353 322.348 -4.17105 232.161 9.29344 221.24L67.9732 228.468L93.6035 302.191L86.8587 381.697Z" fill="#2F2E41"/>
<path d="M44.3662 109.933C55.5414 109.933 64.6007 100.225 64.6007 88.2497C64.6007 76.2744 55.5414 66.5664 44.3662 66.5664C33.1911 66.5664 24.1318 76.2744 24.1318 88.2497C24.1318 100.225 33.1911 109.933 44.3662 109.933Z" fill="#FFB8B8"/>
<path d="M16.0381 121.497L40.3195 125.834L46.3901 102.705L28.8534 96.9231L16.0381 121.497Z" fill="#FFB8B8"/>
<path d="M5.9209 224.132L70.6711 230.637C65.4801 211.294 60.7241 192.02 64.6007 172.815C69.5236 155.669 64.772 145.473 51.7856 137.399L43.0173 116.438L19.4106 113.547C13.159 124.318 10.6018 137.085 12.1779 149.657C15.5416 176.994 14.6332 202.362 5.9209 224.132Z" fill="#EC7000"/>
<path d="M36.4097 63.6418C43.3203 63.1302 51.3102 62.989 52.3107 64.9396C59.4667 64.5809 65.699 67.2559 68.5737 73.4809C68.8192 74.0199 68.9514 74.61 68.9611 75.2097C68.9707 75.8093 68.8576 76.404 68.6295 76.9517C68.4015 77.4995 68.0642 77.987 67.6413 78.3799C67.2185 78.7728 66.7204 79.0616 66.1821 79.2259C62.5519 80.3475 57.0186 81.735 52.9813 81.2919C44.5966 91.8555 48.1245 111.122 56.2631 122.378L48.9087 123.994L34.9531 103.167L39.3567 126.092L22.3737 129.068L16.4504 99.9355C15.205 93.0203 15.5167 85.8865 17.3596 79.1262C17.5565 78.4435 17.794 77.775 18.0706 77.1249C19.7065 73.3124 22.2752 70.0458 25.5042 67.6718C28.7331 65.2979 32.5016 63.9052 36.4097 63.6418Z" fill="#2F2E41"/>
<path d="M47.7383 245.815L47.2909 262.595C47.2292 264.908 47.9877 267.16 49.4137 268.898C50.8396 270.636 52.827 271.73 54.9756 271.96C56.3518 272.108 57.7408 271.895 59.0231 271.339C60.3055 270.784 61.4428 269.904 62.3372 268.773C63.2316 267.643 63.8564 266.296 64.1577 264.85C64.4591 263.403 64.4279 261.9 64.0671 260.469L60.5534 246.538L50.4362 187.27L51.1107 152.577L29.5273 151.854L33.5742 190.884L47.7383 245.815Z" fill="#FFB8B8"/>
<path d="M28.1787 155.468C35.9985 152.276 44.6403 152.276 52.46 155.468L51.1111 126.557C51.1111 123.49 49.9741 120.548 47.9502 118.38C45.9264 116.211 43.1815 114.992 40.3194 114.992C37.4572 114.992 34.7123 116.211 32.6885 118.38C30.6647 120.548 29.5277 123.49 29.5277 126.557L28.1787 155.468Z" fill="#EC7000"/>
</svg>
