<svg width="478" height="443" viewBox="0 0 478 443" fill="none" xmlns="http://www.w3.org/2000/svg">
<path d="M422.176 359.043C412.546 380.215 400.332 400.691 384.878 419.223C384.535 419.642 384.188 420.05 383.839 420.465L347.224 400.935C347.448 400.516 347.693 400.046 347.957 399.531C363.686 369.212 458.63 184.264 455.63 142.375C455.979 145.83 467.233 260.082 422.176 359.043Z" fill="#E6E6E6"/>
<path d="M391.942 422.991C391.429 423.319 390.904 423.64 390.375 423.951L362.907 409.301C363.291 408.994 363.739 408.631 364.253 408.223C372.668 401.415 397.691 380.992 422.176 359.043C448.488 335.455 474.184 310.111 478 298.014C477.225 300.788 453.141 385.112 391.942 422.991Z" fill="#E6E6E6"/>
<path d="M141.477 443C219.612 443 282.954 435.934 282.954 427.218C282.954 418.502 219.612 411.437 141.477 411.437C63.3414 411.437 0 418.502 0 427.218C0 435.934 63.3414 443 141.477 443Z" fill="#E6E6E6"/>
<path d="M64.0102 434.635C87.4216 434.635 106.4 413.253 106.4 386.876C106.4 360.5 87.4216 339.117 64.0102 339.117C40.5988 339.117 21.6201 360.5 21.6201 386.876C21.6201 413.253 40.5988 434.635 64.0102 434.635Z" fill="#00EFE8"/>
<path d="M80.9903 366.835H47.0301C45.5295 366.837 44.0909 367.509 43.0298 368.705C41.9687 369.9 41.3718 371.521 41.3701 373.212V400.541C41.3718 402.232 41.9687 403.852 43.0298 405.048C44.0908 406.243 45.5295 406.916 47.0301 406.918H80.9903C82.4909 406.916 83.9296 406.243 84.9907 405.048C86.0518 403.852 86.6486 402.232 86.6503 400.541V373.212C86.6486 371.521 86.0518 369.9 84.9907 368.705C83.9296 367.509 82.4909 366.837 80.9903 366.835ZM80.9903 370.479C81.193 370.48 81.3949 370.509 81.591 370.567L64.0141 386.364L46.54 370.535C46.7013 370.497 46.8655 370.479 47.0301 370.479H80.9903ZM80.9903 403.274H47.0301C46.387 403.273 45.7704 402.985 45.3157 402.473C44.8609 401.96 44.6051 401.265 44.6044 400.541V373.457L62.9969 390.118C63.2834 390.378 63.6396 390.519 64.0071 390.52C64.3746 390.521 64.7314 390.381 65.0187 390.123L83.416 373.588V400.541C83.4153 401.265 83.1595 401.96 82.7048 402.473C82.25 402.985 81.6334 403.273 80.9903 403.274Z" fill="white"/>
<path d="M180.374 265.825L145.737 268.334L136.446 231.285L166.89 223.247L180.374 265.825Z" fill="#2F2E41"/>
<path d="M227.604 314.343L237.089 314.431C238.048 314.44 238.998 314.213 239.872 313.765C240.746 313.318 241.523 312.662 242.148 311.841C242.774 311.021 243.233 310.057 243.494 309.017C243.754 307.976 243.811 306.884 243.658 305.816C243.494 304.667 243.093 303.578 242.487 302.635C241.881 301.693 241.088 300.924 240.17 300.39C239.252 299.856 238.236 299.572 237.203 299.562C236.17 299.551 235.149 299.814 234.223 300.329L225.278 305.302L194.685 312.988L181.578 297.891L174.05 311.861L191.736 327.256L227.604 314.343Z" fill="#FFB8B8"/>
<path d="M225.826 424.748L214.651 427.17C207.018 400.061 198.748 374.39 198.748 354.534C187.946 368.079 174.551 375.828 158.777 378.262L160.496 348.239L173.39 340.492L193.124 330.23C194.852 329.332 196.716 328.812 198.616 328.699C202.311 328.48 205.947 329.809 208.824 332.429C211.701 335.049 213.616 338.776 214.201 342.892L225.826 424.748Z" fill="#FFB8B8"/>
<path d="M224.107 412.643C224.107 412.643 225.178 412.131 229.457 418.44C229.457 418.44 243.123 421.307 240.863 428.25C238.603 435.192 221.032 434.974 219.362 433.913C217.692 432.853 204.402 432.874 205.321 428.157C206.24 423.441 211.534 418.169 211.534 418.169C211.534 418.169 213.968 423.725 217.751 423.749C222.817 423.78 224.536 418.938 223.677 414.095C223.669 414.05 224.139 412.672 224.107 412.643Z" fill="#2F2E41"/>
<path d="M138.117 396.131C138.117 396.131 139.792 401.287 132.254 404.394C132.254 404.394 124.86 420.166 118.924 415.046C112.989 409.927 119.148 388.474 120.737 386.787C122.326 385.101 126.805 368.811 131.046 371.534C135.288 374.256 138.584 382.527 138.584 382.527C138.584 382.527 124.926 387.468 131.387 398.905C131.387 398.905 134.204 399.12 138.117 396.131Z" fill="#2F2E41"/>
<path d="M153.738 259.371C161.51 259.371 167.812 252.272 167.812 243.515C167.812 234.758 161.51 227.658 153.738 227.658C145.965 227.658 139.664 234.758 139.664 243.515C139.664 252.272 145.965 259.371 153.738 259.371Z" fill="#FFB8B8"/>
<path d="M165.869 285.531H141.37L136.212 268.583C145.154 265.508 143.065 256.775 141.37 248.245H165.869C161.119 258.917 155.219 274.021 166.728 276.815L165.869 285.531Z" fill="#FFB8B8"/>
<path d="M172.315 374.63L167.861 378.444C165.946 380.084 163.684 381.131 161.299 381.481C158.913 381.831 156.488 381.473 154.264 380.441C141.507 369.668 131.102 372.896 122.888 389.157C113.036 376.629 111.946 358.485 120.739 339.765L169.522 340.976L179.407 337.586L172.315 374.63Z" fill="#2F2E41"/>
<path d="M156.069 430.734C153.274 431.703 150.265 431.533 147.57 430.254C144.875 428.975 142.665 426.668 141.328 423.737C136.944 419.387 133.245 413.158 130.037 405.584C127.735 400.027 125.758 394.307 124.119 388.46C121.899 380.735 125.611 372.296 132.52 369.985C132.726 369.916 132.934 369.851 133.144 369.79C142.367 367.122 151.839 373.116 154.992 383.239L164.159 412.675C164.714 414.458 164.944 416.348 164.835 418.233C164.726 420.118 164.281 421.958 163.526 423.645C162.77 425.331 161.72 426.828 160.439 428.046C159.158 429.265 157.671 430.179 156.069 430.734Z" fill="#FFB8B8"/>
<path opacity="0.2" d="M128.476 402.231C128.476 402.231 139.221 415.79 141.37 423.538L128.476 402.231Z" fill="black"/>
<path d="M86.8022 338.244L83.2061 348.132C82.8422 349.133 82.6764 350.211 82.7203 351.291C82.7642 352.371 83.0167 353.427 83.4601 354.386C83.9036 355.345 84.5275 356.184 85.2881 356.843C86.0488 357.503 86.9279 357.967 87.8643 358.204C88.8721 358.46 89.9189 358.445 90.9207 358.161C91.9225 357.878 92.8512 357.333 93.6321 356.571C94.413 355.81 95.0242 354.852 95.4166 353.775C95.809 352.699 95.9717 351.534 95.8914 350.373L95.1166 339.17L100.148 304.313L117.458 296.212L108.743 283.147L89.4862 295.928L86.8022 338.244Z" fill="#FFB8B8"/>
<path d="M172.745 339.765C160.396 363.135 140.536 359.034 119.45 340.734C128.343 333.243 122.889 311.68 115.152 310.227C107.152 308.725 106.19 290.292 103.118 281.173L140.51 265.677L150.611 274.636L160.711 271.972L164.852 273.628C167.547 274.705 169.884 276.686 171.55 279.305C173.215 281.924 174.129 285.054 174.168 288.276C165.683 302.087 159.401 316.821 172.745 339.765Z" fill="#00EFE8"/>
<path d="M177.473 320.88C177.473 320.88 175.57 309.824 169.322 313.294C163.075 316.764 162.645 307.08 162.645 307.08L167.588 274.878L187.788 299.09L177.473 320.88Z" fill="#00EFE8"/>
<path d="M166.883 223.108C166.883 223.108 174.015 226.121 174.115 236.819C174.111 238.619 173.884 240.41 173.44 242.139C172.96 244.1 172.554 248.362 175.63 254.079C177.64 257.79 179.453 261.631 181.06 265.583L172.996 266.379L171.782 251.317C171.193 244.015 169.654 236.85 167.212 230.053L167.161 229.911C167.161 229.911 163.408 237.113 156.385 236.82L158.986 234.098C158.986 234.098 150.157 237.744 145.367 238.446C144.82 238.526 144.303 238.773 143.871 239.159C143.44 239.546 143.11 240.058 142.918 240.64C142.726 241.223 142.678 241.853 142.78 242.463C142.882 243.074 143.13 243.641 143.497 244.105C143.525 244.14 143.553 244.175 143.582 244.21C146.481 247.727 152.241 255.891 148.525 261.962C144.809 268.033 147.763 269.854 147.763 269.854L142.356 266.233L139.903 264.432L139.829 266.693L126.841 264.453C126.841 264.453 123.348 263.742 131.189 254.447C131.189 254.447 133.299 250.798 132.535 247.544C131.901 245.068 131.799 242.458 132.237 239.929C134.271 229.403 141.578 208.613 166.883 223.108Z" fill="#2F2E41"/>
<path d="M423.518 103.245H421.399V37.8488C421.399 27.8107 417.859 18.1837 411.559 11.0857C405.259 3.98763 396.714 0 387.804 0H264.827C255.917 0 247.373 3.98763 241.072 11.0857C234.772 18.1837 231.233 27.8107 231.233 37.8488V396.621C231.233 406.659 234.772 416.286 241.072 423.384C247.373 430.482 255.917 434.47 264.827 434.47H387.804C396.714 434.47 405.258 430.482 411.559 423.384C417.859 416.286 421.398 406.659 421.398 396.621V149.796H423.518L423.518 103.245Z" fill="#3F3D56"/>
<path d="M389.159 9.84599H373.107C373.845 11.8852 374.128 14.0978 373.928 16.2888C373.729 18.4798 373.054 20.582 371.964 22.41C370.874 24.2381 369.401 25.7359 367.676 26.7716C365.95 27.8073 364.025 28.349 362.071 28.3489H291.619C289.664 28.3487 287.74 27.807 286.015 26.7714C284.289 25.7358 282.817 24.2381 281.727 22.4103C280.636 20.5825 279.962 18.4806 279.762 16.2899C279.563 14.0992 279.845 11.8869 280.583 9.84778H265.588C258.934 9.84778 252.552 12.8258 247.847 18.1267C243.142 23.4276 240.499 30.6172 240.499 38.1138V396.358C240.499 403.854 243.142 411.044 247.847 416.345C252.552 421.646 258.934 424.624 265.588 424.624H389.155C395.809 424.624 402.19 421.646 406.895 416.345C411.6 411.044 414.243 403.854 414.243 396.358V396.358V38.112C414.243 30.6153 411.6 23.4258 406.895 18.1249C402.19 12.824 395.809 9.84595 389.155 9.84595H389.159V9.84599Z" fill="white"/>
<path d="M327.586 404.604C335.195 404.604 341.363 397.654 341.363 389.082C341.363 380.51 335.195 373.561 327.586 373.561C319.977 373.561 313.809 380.51 313.809 389.082C313.809 397.654 319.977 404.604 327.586 404.604Z" fill="#E6E6E6"/>
<path d="M271.696 245.539C270.394 245.539 269.334 246.901 269.334 248.576C269.334 250.251 270.394 251.613 271.696 251.613H383.046C384.348 251.613 385.408 250.251 385.408 248.576C385.408 246.901 384.348 245.539 383.046 245.539H271.696Z" fill="#E6E6E6"/>
<path d="M271.696 317.177C270.394 317.177 269.334 318.54 269.334 320.214C269.334 321.889 270.394 323.252 271.696 323.252H383.046C384.348 323.252 385.408 321.889 385.408 320.214C385.408 318.54 384.348 317.177 383.046 317.177H271.696Z" fill="#E6E6E6"/>
<path d="M271.696 263.763C270.394 263.763 269.334 265.126 269.334 266.8C269.334 268.475 270.394 269.838 271.696 269.838H319.61C320.913 269.838 321.972 268.475 321.972 266.8C321.972 265.126 320.913 263.763 319.61 263.763H271.696Z" fill="#E6E6E6"/>
<path d="M271.696 281.134C270.394 281.134 269.334 282.497 269.334 284.172C269.334 285.846 270.394 287.209 271.696 287.209H383.046C384.348 287.209 385.408 285.846 385.408 284.172C385.408 282.497 384.348 281.134 383.046 281.134H271.696Z" fill="#E6E6E6"/>
<path d="M271.696 299.359C270.394 299.359 269.334 300.721 269.334 302.396C269.334 304.071 270.394 305.433 271.696 305.433H319.61C320.913 305.433 321.972 304.071 321.972 302.396C321.972 300.721 320.913 299.359 319.61 299.359H271.696Z" fill="#E6E6E6"/>
<path d="M292.717 107.235H362.032C362.798 107.236 363.532 107.579 364.073 108.189C364.615 108.799 364.919 109.626 364.92 110.489V191.82C364.919 192.682 364.615 193.51 364.073 194.12C363.532 194.73 362.798 195.073 362.032 195.074H292.717C291.952 195.073 291.217 194.73 290.676 194.12C290.135 193.51 289.83 192.682 289.829 191.82V110.489C289.83 109.626 290.135 108.799 290.676 108.189C291.217 107.579 291.952 107.236 292.717 107.235Z" fill="#00EFE8"/>
<path d="M347.263 178.302C347.52 178.302 347.776 178.245 348.014 178.135C348.252 178.024 348.469 177.861 348.651 177.656C348.834 177.451 348.978 177.207 349.077 176.939C349.176 176.671 349.227 176.383 349.227 176.093C349.227 175.802 349.176 175.515 349.077 175.246C348.978 174.978 348.834 174.734 348.651 174.529C348.469 174.324 348.252 174.161 348.014 174.051C347.776 173.94 347.52 173.883 347.263 173.884H307.487C307.229 173.883 306.974 173.94 306.736 174.051C306.497 174.161 306.281 174.324 306.098 174.529C305.916 174.734 305.771 174.978 305.673 175.246C305.574 175.515 305.523 175.802 305.523 176.093C305.523 176.383 305.574 176.671 305.673 176.939C305.771 177.207 305.916 177.451 306.098 177.656C306.281 177.861 306.497 178.024 306.736 178.135C306.974 178.245 307.229 178.302 307.487 178.302H347.263Z" fill="white"/>
<path d="M347.263 165.286C347.783 165.286 348.282 165.053 348.649 164.639C349.017 164.225 349.224 163.663 349.224 163.077C349.224 162.491 349.017 161.929 348.649 161.515C348.282 161.101 347.783 160.868 347.263 160.868H307.487C307.23 160.868 306.975 160.925 306.737 161.036C306.499 161.147 306.283 161.31 306.101 161.515C305.919 161.72 305.774 161.964 305.676 162.232C305.577 162.5 305.526 162.787 305.526 163.077C305.526 163.367 305.577 163.654 305.676 163.922C305.774 164.19 305.919 164.434 306.101 164.639C306.283 164.844 306.499 165.007 306.737 165.118C306.975 165.229 307.23 165.286 307.487 165.286H347.263Z" fill="white"/>
<path d="M327.374 124.007C329.815 124.007 332.202 124.822 334.231 126.35C336.261 127.878 337.843 130.05 338.777 132.591C339.711 135.131 339.956 137.927 339.479 140.625C339.003 143.322 337.828 145.8 336.102 147.744C334.376 149.689 332.176 151.013 329.782 151.55C327.388 152.087 324.906 151.811 322.651 150.759C320.396 149.706 318.468 147.924 317.112 145.637C315.756 143.351 315.032 140.662 315.032 137.912C315.036 134.225 316.337 130.691 318.651 128.084C320.965 125.477 324.102 124.011 327.374 124.007Z" fill="white"/>
</svg>
