<svg width="543" height="503" viewBox="0 0 543 503" fill="none" xmlns="http://www.w3.org/2000/svg">
<path d="M267.695 119.397H264.744V43.7698C264.744 32.1613 259.817 21.0283 251.046 12.8199C242.275 4.61145 230.379 0 217.975 0H46.769C34.3651 0 22.4692 4.61145 13.6983 12.8199C4.92746 21.0283 0 32.1613 0 43.7698V458.667C0 470.276 4.92746 481.409 13.6983 489.617C22.4692 497.826 34.3651 502.437 46.769 502.437H217.975C230.379 502.437 242.274 497.826 251.045 489.617C259.816 481.409 264.744 470.276 264.744 458.667V173.23H267.694L267.695 119.397Z" fill="#3F3D56"/>
<path d="M219.863 11.3857H197.515C198.543 13.744 198.935 16.3027 198.658 18.8365C198.381 21.3703 197.441 23.8013 195.924 25.9153C194.406 28.0293 192.355 29.7615 189.953 30.9592C187.551 32.1569 184.872 32.7833 182.15 32.7833H84.0687C81.3475 32.7831 78.6681 32.1565 76.2665 30.9589C73.865 29.7613 71.815 28.0293 70.2971 25.9156C68.7793 23.8018 67.8402 21.3712 67.5625 18.8378C67.2849 16.3044 67.6772 13.7459 68.705 11.3878H47.8286C38.5652 11.3878 29.6812 14.8317 23.1309 20.9619C16.5807 27.0921 12.9009 35.4064 12.9009 44.0758V458.363C12.9009 467.033 16.5807 475.347 23.1309 481.477C29.6812 487.607 38.5652 491.051 47.8286 491.051H219.856C229.119 491.051 238.003 487.607 244.554 481.477C251.104 475.347 254.784 467.033 254.784 458.363V44.0737C254.784 35.4043 251.104 27.09 244.554 20.9598C238.003 14.8296 229.119 11.3857 219.856 11.3857H219.863Z" fill="white"/>
<path d="M232.906 92.8457H34.7886V409.592H232.906V92.8457Z" fill="#E6E6E6"/>
<path d="M134.141 467.899C144.733 467.899 153.32 459.863 153.32 449.949C153.32 440.036 144.733 432 134.141 432C123.548 432 114.961 440.036 114.961 449.949C114.961 459.863 123.548 467.899 134.141 467.899Z" fill="#E6E6E6"/>
<path d="M225.823 443.497L223.632 463.319L236.048 461.952L237.508 445.548L225.823 443.497Z" fill="#FFB9B9"/>
<path d="M192.958 293.119C192.958 293.119 129.415 350.536 169.586 368.308H182.002C182.002 368.308 209.025 326.61 222.172 327.297L225.824 366.942L223.633 446.915L239.701 447.598C239.701 447.598 249.196 407.27 248.465 384.713L265.264 301.322L192.958 293.119Z" fill="#2F2E41"/>
<path d="M173.236 365.574L182 368.308C182 368.308 216.328 360.789 218.515 361.474L225.312 361.429L225.09 345.068H195.878L173.236 365.574Z" fill="#2F2E41"/>
<path d="M237.509 459.219C237.509 459.219 224.362 453.75 222.171 459.219C219.98 464.687 220.71 480.408 220.71 480.408C222.462 483.561 222.979 487.189 222.171 490.661C220.71 496.129 228.014 498.863 237.509 496.129C247.003 493.396 247.003 486.56 247.003 486.56L237.509 459.219Z" fill="#2F2E41"/>
<path d="M248.464 343.698C248.464 343.698 258.689 338.23 257.958 346.432C257.352 351.849 255.875 357.149 253.576 362.153C253.576 362.153 263.071 385.393 253.576 387.444C244.081 389.494 236.777 384.71 236.777 381.292C236.777 377.874 248.464 343.698 248.464 343.698Z" fill="#2F2E41"/>
<path d="M216.328 156.413L217.789 182.388L230.205 192.639L244.082 174.184V155.729L216.328 156.413Z" fill="#FFB9B9"/>
<path d="M225.822 182.387L217.461 176.573L211.946 184.438L187.113 198.107L201.719 233.651L202.449 268.511C202.449 268.511 175.426 294.485 191.494 297.903C207.562 301.321 264.531 308.84 267.452 302.688C270.374 296.537 263.801 232.968 263.801 232.968L265.992 178.969L244.083 171.555L225.822 182.387Z" fill="#1D39CB"/>
<path d="M181.27 225.679C181.27 225.679 175.427 264.409 186.383 264.409C192.889 264.429 199.338 263.269 205.372 260.991L196.608 239.802L200.259 225.447L181.27 225.679Z" fill="#FFB9B9"/>
<path d="M198.068 259.627L206.103 260.994C206.103 260.994 229.474 247.324 230.935 246.639C232.396 245.954 207.563 234.335 207.563 234.335L190.765 240.487L198.068 259.627Z" fill="#FFB9B9"/>
<path opacity="0.1" d="M207.563 234.335L197.014 238.198L200.26 225.449L181.27 225.678C181.27 225.678 175.427 264.408 186.383 264.408C192.89 264.429 199.339 263.268 205.373 260.991L205.317 260.857L206.103 260.991C206.103 260.991 229.475 247.321 230.936 246.636C232.396 245.952 207.563 234.335 207.563 234.335Z" fill="black"/>
<path d="M233.224 169.374C244.742 169.374 254.08 160.636 254.08 149.856C254.08 139.076 244.742 130.337 233.224 130.337C221.706 130.337 212.368 139.076 212.368 149.856C212.368 160.636 221.706 169.374 233.224 169.374Z" fill="#FFB9B9"/>
<path d="M214.785 127.836L210.71 126.31C210.71 126.31 219.23 117.531 231.084 118.294L227.75 114.859C227.75 114.859 235.9 111.806 243.308 119.821C247.203 124.032 251.709 128.987 254.521 134.566H258.885L257.064 138.319L263.436 142.074L256.893 141.399C257.513 144.64 257.301 147.971 256.274 151.12L256.45 154.088C256.45 154.088 248.866 143.107 248.866 141.58V145.397C248.866 145.397 244.791 141.962 244.791 139.672L242.568 142.344L241.454 138.139L227.747 142.337L229.97 138.902L221.45 140.047L224.784 135.849C224.784 135.849 215.153 140.81 214.782 145.009C214.411 149.208 209.596 154.551 209.596 154.551L207.373 150.734C207.373 150.734 204.042 133.561 214.785 127.836Z" fill="#2F2E41"/>
<path d="M251.385 213.83C247.699 218.092 245.642 223.385 245.542 228.868L206.832 227.501C206.832 227.501 196.607 226.134 196.607 232.969V239.804C196.607 239.804 201.72 237.753 204.641 239.804C207.562 241.854 238.968 259.627 254.306 252.791C269.644 245.956 273.296 219.298 273.296 219.298C273.296 219.298 259.419 208.361 251.385 213.83Z" fill="#FFB9B9"/>
<path d="M260.153 179.653L265.996 178.969C265.996 178.969 277.682 180.336 276.221 201.526C274.761 222.716 274.03 224.083 274.03 224.083C274.03 224.083 258.693 211.095 247.737 217.248L260.153 179.653Z" fill="#1D39CB"/>
<path d="M190.034 198.111H187.113C183.328 202.585 181.269 208.125 181.27 213.832C181.203 219.944 180.345 226.026 178.714 231.945L201.721 228.186L190.034 198.111Z" fill="#1D39CB"/>
<path d="M542.742 92.8274H330.665V132.014H542.742V92.8274Z" fill="#E6E6E6"/>
<path d="M335.186 127.783H538.221V97.0618H335.186V127.783Z" fill="white"/>
<path d="M352.96 100.462C355.433 100.462 357.851 101.148 359.908 102.434C361.965 103.721 363.568 105.549 364.515 107.687C365.462 109.826 365.709 112.18 365.227 114.45C364.744 116.721 363.553 118.806 361.804 120.443C360.054 122.08 357.826 123.195 355.4 123.647C352.973 124.099 350.459 123.867 348.173 122.981C345.888 122.095 343.934 120.595 342.56 118.67C341.186 116.745 340.452 114.482 340.452 112.167C340.452 109.062 341.77 106.085 344.115 103.89C346.461 101.695 349.642 100.462 352.96 100.462V100.462Z" fill="#1D39CB"/>
<path d="M506.308 107.586H382.868V110.131H506.308V107.586Z" fill="#E6E6E6"/>
<path d="M506.308 114.202H382.868V116.747H506.308V114.202Z" fill="#E6E6E6"/>
<path d="M542.742 148.748H330.665V187.935H542.742V148.748Z" fill="#E6E6E6"/>
<path d="M335.186 183.704H538.221V152.982H335.186V183.704Z" fill="white"/>
<path d="M352.96 179.792C359.867 179.792 365.467 174.552 365.467 168.088C365.467 161.623 359.867 156.383 352.96 156.383C346.052 156.383 340.452 161.623 340.452 168.088C340.452 174.552 346.052 179.792 352.96 179.792Z" fill="#1D39CB"/>
<path d="M506.308 163.507H382.868V166.052H506.308V163.507Z" fill="#E6E6E6"/>
<path d="M506.308 170.123H382.868V172.667H506.308V170.123Z" fill="#E6E6E6"/>
<path d="M542.742 204.668H330.665V243.855H542.742V204.668Z" fill="#E6E6E6"/>
<path d="M335.186 239.624H538.221V208.903H335.186V239.624Z" fill="white"/>
<path d="M352.96 235.713C359.867 235.713 365.467 230.473 365.467 224.008C365.467 217.543 359.867 212.303 352.96 212.303C346.052 212.303 340.452 217.543 340.452 224.008C340.452 230.473 346.052 235.713 352.96 235.713Z" fill="#1D39CB"/>
<path d="M506.308 219.428H382.868V221.972H506.308V219.428Z" fill="#E6E6E6"/>
<path d="M506.308 226.043H382.868V228.588H506.308V226.043Z" fill="#E6E6E6"/>
</svg>
