<svg width="738" height="469" viewBox="0 0 738 469" fill="none" xmlns="http://www.w3.org/2000/svg">
<g clip-path="url(#clip0)">
<path d="M175.436 469C272.327 469 350.873 464.536 350.873 459.029C350.873 453.523 272.327 449.059 175.436 449.059C78.5455 449.059 0 453.523 0 459.029C0 464.536 78.5455 469 175.436 469Z" fill="#E6E6E6"/>
<path d="M257.029 254.336L246.943 248.795L255.348 223.859L257.563 211.283C257.851 209.649 258.524 208.127 259.515 206.869C260.506 205.61 261.78 204.659 263.21 204.112C264.64 203.564 266.176 203.438 267.664 203.746C269.153 204.055 270.541 204.787 271.691 205.87C273.395 207.475 274.465 209.745 274.675 212.2C274.885 214.655 274.219 217.104 272.817 219.03L264.594 230.323L257.029 254.336Z" fill="#A0616A"/>
<path d="M260.395 251.565L258.534 257.963L250.186 286.703C249.369 289.521 247.829 292.02 245.751 293.9C243.674 295.78 241.147 296.961 238.473 297.302C235.8 297.644 233.093 297.13 230.679 295.823C228.265 294.517 226.245 292.472 224.861 289.935L197.797 238.969C197.364 238.175 196.995 237.341 196.693 236.476C195.385 232.704 195.45 228.524 196.875 224.804C198.3 221.084 200.974 218.11 204.342 216.5C207.711 214.89 211.514 214.768 214.962 216.159C218.41 217.551 221.238 220.349 222.857 223.971L239.38 262.649L246.942 244.178L260.395 251.565Z" fill="#E6E6E6"/>
<path d="M256.498 437.216L238.007 439.063L227.92 358.713C194.672 364.859 163.306 366.828 136.176 359.393C133.883 358.774 131.732 357.64 129.857 356.064C127.982 354.487 126.424 352.502 125.281 350.232C124.138 347.962 123.434 345.457 123.213 342.874C122.993 340.292 123.261 337.687 124.001 335.223C127.248 324.575 132.968 313.164 139.665 301.453L184.213 319.001L185.894 326.389L233.41 319.78C235.809 319.446 238.246 319.665 240.564 320.421C242.883 321.178 245.033 322.456 246.878 324.175C248.723 325.893 250.222 328.015 251.281 330.404C252.34 332.794 252.934 335.399 253.027 338.055L256.498 437.216Z" fill="#2F2E41"/>
<path d="M276.636 452.785C276.814 451.41 276.63 450.008 276.105 448.745C275.581 447.483 274.738 446.411 273.677 445.658L254.695 435.422L240.384 437.407L237.004 450.721C236.861 451.67 236.895 452.64 237.105 453.574C237.314 454.507 237.694 455.384 238.222 456.151C238.75 456.918 239.414 457.559 240.174 458.035C240.935 458.511 241.775 458.812 242.645 458.919L269.35 458.983C271.059 459.195 272.777 458.665 274.137 457.508C275.498 456.351 276.394 454.656 276.636 452.785Z" fill="#2F2E41"/>
<path d="M261.17 426.942L242.678 428.789L232.592 348.44C199.344 354.586 167.978 356.555 140.847 349.12C138.554 348.501 136.403 347.367 134.528 345.79C132.653 344.214 131.096 342.228 129.952 339.958C128.809 337.689 128.105 335.184 127.885 332.601C127.664 330.018 127.933 327.413 128.672 324.95C131.919 314.302 137.64 302.891 144.336 291.18L188.884 308.727L190.565 316.116L238.081 309.507C240.481 309.173 242.917 309.391 245.236 310.148C247.554 310.904 249.705 312.183 251.549 313.901C253.394 315.62 254.894 317.741 255.952 320.131C257.011 322.52 257.606 325.126 257.699 327.781L261.17 426.942Z" fill="#2F2E41"/>
<path d="M281.308 442.511C281.486 441.137 281.301 439.735 280.777 438.472C280.252 437.209 279.41 436.138 278.348 435.385L259.367 425.149L245.055 427.134L241.675 440.448C241.533 441.396 241.567 442.367 241.776 443.3C241.986 444.234 242.366 445.111 242.893 445.878C243.421 446.645 244.085 447.286 244.846 447.762C245.606 448.238 246.447 448.538 247.316 448.646L274.021 448.71C275.731 448.921 277.448 448.392 278.809 447.235C280.169 446.077 281.066 444.383 281.308 442.511Z" fill="#2F2E41"/>
<path d="M227.549 207.136C240.082 207.136 250.243 195.972 250.243 182.2C250.243 168.429 240.082 157.264 227.549 157.264C215.015 157.264 204.854 168.429 204.854 182.2C204.854 195.972 215.015 207.136 227.549 207.136Z" fill="#A0616A"/>
<path d="M226.708 232.996L200.651 229.302L210.737 195.13H235.953L226.708 232.996Z" fill="#A0616A"/>
<path d="M233.799 267.452C232.477 271.485 230.561 275.252 228.128 278.602C224.659 283.28 220.491 287.276 215.802 290.417C214.985 290.999 214.138 291.556 213.261 292.104L208.255 296.79L190.568 313.341L141.816 293.026C152.569 266.77 165.984 246.015 181.357 229.297C184.551 224.15 189.104 220.202 194.403 217.986C199.702 215.769 205.492 215.39 210.992 216.9L229.232 221.911C235.72 238.736 238.132 254.207 233.799 267.452Z" fill="#E6E6E6"/>
<path d="M241.803 229.625C241.472 229.982 241.282 230.467 241.276 230.977C241.269 231.486 241.445 231.978 241.767 232.345C242.328 232.612 253.449 246.537 254.132 245.579C254.365 245.582 254.596 245.533 254.811 245.437C255.027 245.34 255.223 245.198 255.387 245.017L289.319 207.895C289.505 207.692 289.647 207.447 289.735 207.176C289.823 206.905 289.854 206.616 289.827 206.33C290.743 205.387 276.142 195.881 275.696 195.363C275.362 195.122 274.963 195.014 274.566 195.057C274.168 195.1 273.796 195.291 273.512 195.599L241.803 229.625Z" fill="#3F3D56"/>
<path d="M286.41 205.934L285.029 204.966C285.167 205.251 285.215 205.578 285.165 205.897C285.115 206.215 284.97 206.505 284.753 206.723C284.536 206.94 284.259 207.072 283.966 207.098C283.674 207.123 283.381 207.041 283.136 206.864L274.2 200.114C274 199.959 273.843 199.746 273.747 199.498C273.651 199.251 273.619 198.979 273.655 198.712C273.691 198.446 273.794 198.196 273.951 197.99C274.109 197.784 274.315 197.63 274.548 197.546C274.194 197.414 273.622 196.624 273.239 197.121L243.179 229.58C242.108 230.152 254.101 241.572 254.108 242.021C255.003 243.117 285.836 206.775 286.492 206.75C286.543 206.694 286.581 206.626 286.605 206.552C286.628 206.478 286.637 206.398 286.629 206.32C286.621 206.242 286.597 206.166 286.559 206.1C286.522 206.033 286.471 205.976 286.41 205.934Z" fill="white"/>
<path d="M279.035 222.463L288.256 232.015L310.19 208.205L299.058 200.244L279.035 222.463Z" fill="#6DECA9"/>
<path d="M282.019 214.031C282.08 214.095 282.16 214.131 282.245 214.131C282.329 214.131 282.409 214.095 282.47 214.031C282.571 213.723 284.912 211.85 284.388 211.428C284.327 211.364 284.247 211.329 284.163 211.329C284.078 211.329 283.998 211.364 283.937 211.428C283.836 211.736 281.495 213.61 282.019 214.031Z" fill="#E6E6E6"/>
<path d="M279.24 217.582C279.34 217.273 281.682 215.4 281.157 214.978C280.767 214.407 279.077 216.969 278.788 217.086C278.491 217.403 278.951 217.907 279.24 217.582Z" fill="#E6E6E6"/>
<path d="M254.083 230.613C254.124 233.683 249.734 233.684 249.775 230.612C249.734 227.542 254.125 227.542 254.083 230.613Z" fill="#6DECA9"/>
<path opacity="0.2" d="M228.128 278.602C224.659 283.28 220.491 287.276 215.802 290.417C214.985 290.999 214.138 291.556 213.261 292.104L208.255 296.79C198.319 282.441 198.878 238.844 198.878 238.844L214.002 240.506L228.128 278.602Z" fill="black"/>
<path d="M257.807 267.167L247.721 261.626L256.126 236.69L258.342 224.114C258.629 222.481 259.302 220.958 260.293 219.7C261.284 218.442 262.558 217.491 263.989 216.943C265.419 216.395 266.955 216.269 268.443 216.578C269.931 216.887 271.319 217.619 272.469 218.702C274.173 220.307 275.243 222.576 275.453 225.032C275.663 227.487 274.997 229.936 273.595 231.861L265.372 243.155L257.807 267.167Z" fill="#A0616A"/>
<path d="M247.721 257.008L261.169 264.397L250.964 299.534C250.231 302.057 248.917 304.33 247.149 306.131C245.382 307.932 243.221 309.201 240.876 309.814C237.985 310.571 234.949 310.296 232.21 309.029C229.47 307.762 227.169 305.57 225.64 302.769L198.577 251.799C196.659 248.287 196.067 244.09 196.927 240.105C197.787 236.12 200.032 232.662 203.181 230.47C204.875 229.292 206.776 228.518 208.759 228.2C210.743 227.882 212.766 228.026 214.695 228.624C216.625 229.221 218.419 230.259 219.959 231.668C221.5 233.078 222.753 234.828 223.638 236.805L240.156 275.479L247.721 257.008Z" fill="#E6E6E6"/>
<path d="M236.091 172.488C237.94 174.182 240.027 175.536 242.272 176.496C244.55 177.336 247.195 177.354 249.229 175.947C251.627 174.287 252.722 170.917 252.476 167.815C252.23 164.713 250.845 161.85 249.19 159.322C246.144 154.666 242.139 150.869 237.502 148.239C232.864 145.609 227.727 144.221 222.508 144.19C217.29 144.158 212.139 145.483 207.476 148.056C202.812 150.63 198.769 154.379 195.676 158.997C193.553 162.167 191.87 165.848 191.686 169.779C191.361 176.706 195.676 183.173 195.214 190.091C194.824 195.943 191.002 200.955 186.475 204.066C181.948 207.177 176.716 208.755 171.655 210.623C166.593 212.491 161.475 214.797 157.728 218.977C153.982 223.158 151.916 229.646 153.972 235.06C155.662 239.509 159.677 242.339 163.703 244.255C174.499 249.334 186.626 249.834 197.738 245.659C201.835 244.098 206.308 240.976 206.37 236.212C206.397 234.144 205.551 232.203 205.042 230.212C204.534 228.222 204.438 225.847 205.714 224.327C207.296 222.441 210.219 222.875 212.109 224.379C214 225.883 215.229 228.164 216.789 230.072C219.75 233.694 224.24 236.008 228.628 235.326C233.015 234.643 236.981 230.536 237.163 225.671C237.475 217.314 227.945 212.081 226.909 203.794C226.217 198.26 229.497 193.196 232.338 188.564C235.18 183.931 237.823 178.127 235.834 172.986" fill="#2F2E41"/>
<path d="M113.807 368.047C110.687 368.045 107.616 367.196 104.867 365.574C102.118 363.952 99.7776 361.608 98.0533 358.751C96.3289 355.894 95.2745 352.613 94.984 349.2C94.6935 345.787 95.176 342.348 96.3884 339.189L99.1739 340.484C97.9574 343.656 97.6213 347.152 98.2079 350.533C98.7944 353.914 100.277 357.029 102.471 359.487C104.664 361.945 107.469 363.636 110.534 364.347C113.599 365.058 116.787 364.758 119.697 363.484L120.82 366.571C118.589 367.55 116.209 368.051 113.807 368.047Z" fill="#3F3D56"/>
<path d="M94.1426 346.31C92.0143 346.235 89.9962 345.253 88.515 343.572C87.0337 341.891 86.2056 339.643 86.2056 337.303V188.16C86.9184 187.376 87.7767 186.769 88.722 186.382C89.6673 185.995 90.6775 185.837 91.6836 185.917C92.6898 185.998 93.6683 186.316 94.5526 186.849C95.4369 187.383 96.2061 188.119 96.808 189.009C135.463 246.442 137.166 297.944 100.541 343.294C99.741 344.281 98.7531 345.063 97.6474 345.585C96.5417 346.106 95.3451 346.354 94.1426 346.31Z" fill="#6DECA9"/>
<path d="M85.0718 337.304V188.575C85.7603 188.576 86.4362 188.779 87.0297 189.163C87.6231 189.546 88.1127 190.097 88.4479 190.758C106.04 225.452 119.09 252.943 118.733 277.856C118.415 300.105 104.19 310.377 91.7816 333.142C91.0855 334.414 90.1016 335.465 88.9257 336.194C87.7498 336.924 86.4221 337.306 85.0718 337.304Z" fill="#3F3D56"/>
<path d="M142.92 367.632H119.478V360.985L138.383 355.169L142.92 367.632Z" fill="#3F3D56"/>
<path d="M134.602 360.985H196.61C196.61 364.731 195.255 368.324 192.845 370.973C190.434 373.622 187.164 375.11 183.754 375.11H147.457C144.048 375.11 140.778 373.622 138.367 370.973C135.956 368.324 134.602 364.731 134.602 360.985Z" fill="#3F3D56"/>
<path d="M172.411 373.448H164.093V380.926H172.411V373.448Z" fill="#3F3D56"/>
<path d="M176.193 379.264H161.069V401.698H176.193V379.264Z" fill="#3F3D56"/>
<path d="M175.058 413.746H162.203V443.658H175.058V413.746Z" fill="#3F3D56"/>
<path d="M181.864 417.07H155.397L159.178 398.79H181.864V417.07Z" fill="#3F3D56"/>
<path d="M158.422 415.408L104.733 442.827L103.976 446.981H96.4146L96.7761 440.625C96.8963 438.513 97.5168 436.472 98.5762 434.704C99.6356 432.937 101.097 431.504 102.816 430.549L159.935 398.79L158.422 415.408Z" fill="#3F3D56"/>
<path d="M178.839 415.408L235.554 442.827L236.31 446.981H243.872L243.51 440.625C243.39 438.513 242.77 436.472 241.71 434.704C240.651 432.937 239.189 431.504 237.471 430.549L181.864 398.79L178.839 415.408Z" fill="#3F3D56"/>
<path d="M99.4392 464.43C104.033 464.43 107.757 460.338 107.757 455.29C107.757 450.243 104.033 446.151 99.4392 446.151C94.8452 446.151 91.1211 450.243 91.1211 455.29C91.1211 460.338 94.8452 464.43 99.4392 464.43Z" fill="#3F3D56"/>
<path d="M195.475 464.43C200.069 464.43 203.793 460.338 203.793 455.29C203.793 450.243 200.069 446.151 195.475 446.151C190.881 446.151 187.157 450.243 187.157 455.29C187.157 460.338 190.881 464.43 195.475 464.43Z" fill="#3F3D56"/>
<path d="M240.091 464.43C244.685 464.43 248.409 460.338 248.409 455.29C248.409 450.243 244.685 446.151 240.091 446.151C235.497 446.151 231.772 450.243 231.772 455.29C231.772 460.338 235.497 464.43 240.091 464.43Z" fill="#3F3D56"/>
<path d="M198.5 449.474L192.451 448.643L190.938 441.997L170.521 414.577L179.595 404.606L195.746 431.58C197.543 434.581 198.5 438.094 198.5 441.686V449.474Z" fill="#3F3D56"/>
<path d="M223.336 363.062H123C121.694 363.062 120.4 362.779 119.193 362.23C117.986 361.68 116.889 360.875 115.965 359.86C115.041 358.845 114.308 357.64 113.808 356.313C113.308 354.987 113.051 353.565 113.051 352.129V346.203C113.052 343.692 113.558 341.213 114.532 338.941C115.506 336.67 116.925 334.663 118.687 333.064C135.625 317.683 149.334 304.605 168.253 305.647C184.598 306.547 205.26 329.149 223.077 336.122C226.073 337.308 228.662 339.483 230.49 342.348C232.317 345.214 233.294 348.63 233.285 352.129C233.285 353.565 233.028 354.987 232.528 356.313C232.028 357.64 231.295 358.845 230.371 359.86C229.447 360.875 228.35 361.68 227.143 362.23C225.936 362.779 224.642 363.062 223.336 363.062Z" fill="#6DECA9"/>
<path d="M649.08 276.844H366.672C365.285 276.842 363.956 276.236 362.975 275.159C361.995 274.082 361.444 272.621 361.442 271.098V5.74637C361.444 4.22288 361.995 2.76232 362.975 1.68505C363.956 0.607787 365.285 0.00178996 366.672 0H649.08C650.467 0.00178997 651.796 0.607787 652.776 1.68505C653.757 2.76232 654.308 4.22289 654.31 5.74637V271.098C654.308 272.621 653.757 274.082 652.776 275.159C651.796 276.236 650.467 276.842 649.08 276.844ZM366.672 2.29856C365.84 2.29955 365.042 2.66311 364.454 3.30949C363.866 3.95586 363.535 4.83225 363.534 5.74637V271.098C363.535 272.012 363.866 272.888 364.454 273.534C365.042 274.181 365.84 274.544 366.672 274.545H649.08C649.912 274.544 650.71 274.181 651.298 273.534C651.886 272.888 652.217 272.012 652.218 271.098V5.74637C652.217 4.83226 651.886 3.95588 651.298 3.3095C650.71 2.66313 649.912 2.29956 649.08 2.29856H366.672Z" fill="#E6E6E6"/>
<path d="M410.552 253.065C422.317 253.065 431.855 242.585 431.855 229.657C431.855 216.73 422.317 206.25 410.552 206.25C398.786 206.25 389.249 216.73 389.249 229.657C389.249 242.585 398.786 253.065 410.552 253.065Z" fill="#E6E6E6"/>
<path d="M459.753 214.052C458.811 214.052 457.908 214.463 457.242 215.195C456.576 215.927 456.202 216.919 456.202 217.954C456.202 218.988 456.576 219.981 457.242 220.712C457.908 221.444 458.811 221.855 459.753 221.855H627.136C628.078 221.855 628.981 221.444 629.647 220.712C630.313 219.981 630.687 218.988 630.687 217.954C630.687 216.919 630.313 215.927 629.647 215.195C628.981 214.463 628.078 214.052 627.136 214.052H459.753Z" fill="#E6E6E6"/>
<path d="M459.753 237.46C459.286 237.459 458.824 237.56 458.392 237.755C457.961 237.951 457.569 238.238 457.239 238.601C456.908 238.963 456.646 239.393 456.468 239.867C456.289 240.341 456.197 240.849 456.197 241.361C456.197 241.874 456.289 242.382 456.468 242.856C456.646 243.329 456.908 243.76 457.239 244.122C457.569 244.484 457.961 244.772 458.392 244.967C458.824 245.163 459.286 245.263 459.753 245.263H531.778C532.719 245.261 533.621 244.849 534.285 244.118C534.95 243.387 535.323 242.395 535.323 241.361C535.323 240.328 534.95 239.336 534.285 238.605C533.621 237.873 532.719 237.462 531.778 237.46H459.753Z" fill="#E6E6E6"/>
<path d="M716.177 184.293H433.768C432.382 184.291 431.053 183.685 430.072 182.608C429.092 181.53 428.54 180.07 428.539 178.546V42.3685C428.54 40.845 429.092 39.3844 430.072 38.3071C431.053 37.2299 432.382 36.6239 433.768 36.6221H716.177C717.563 36.6239 718.893 37.2299 719.873 38.3071C720.853 39.3844 721.405 40.845 721.406 42.3685V178.546C721.405 180.07 720.853 181.53 719.873 182.608C718.893 183.685 717.563 184.291 716.177 184.293Z" fill="#6DECA9"/>
<path d="M491.281 84.0879C490.339 84.0879 489.436 84.4989 488.77 85.2305C488.105 85.9621 487.73 86.9544 487.73 87.9891C487.73 89.0238 488.105 90.0161 488.77 90.7478C489.436 91.4794 490.339 91.8904 491.281 91.8904H658.664C659.606 91.8904 660.509 91.4794 661.175 90.7478C661.841 90.0161 662.215 89.0238 662.215 87.9891C662.215 86.9544 661.841 85.9621 661.175 85.2305C660.509 84.4989 659.606 84.0879 658.664 84.0879H491.281Z" fill="white"/>
<path d="M491.281 106.693C490.339 106.693 489.436 107.104 488.77 107.836C488.105 108.567 487.73 109.56 487.73 110.594C487.73 111.629 488.105 112.621 488.77 113.353C489.436 114.085 490.339 114.496 491.281 114.496H658.664C659.606 114.496 660.509 114.085 661.175 113.353C661.841 112.621 662.215 111.629 662.215 110.594C662.215 109.56 661.841 108.567 661.175 107.836C660.509 107.104 659.606 106.693 658.664 106.693H491.281Z" fill="white"/>
<path d="M491.281 129.024C490.339 129.024 489.436 129.435 488.77 130.167C488.105 130.899 487.73 131.891 487.73 132.926C487.73 133.96 488.105 134.953 488.77 135.684C489.436 136.416 490.339 136.827 491.281 136.827H563.307C564.248 136.827 565.151 136.416 565.817 135.684C566.483 134.953 566.857 133.96 566.857 132.926C566.857 131.891 566.483 130.899 565.817 130.167C565.151 129.435 564.248 129.024 563.307 129.024H491.281Z" fill="white"/>
<path d="M716.697 198.967C728.462 198.967 738 188.487 738 175.559C738 162.632 728.462 152.152 716.697 152.152C704.931 152.152 695.394 162.632 695.394 175.559C695.394 188.487 704.931 198.967 716.697 198.967Z" fill="#3F3D56"/>
<path d="M714.921 185.909L708.16 176.357L712.092 172.997L715.293 177.519L726.108 164.975L729.725 168.74L714.921 185.909Z" fill="white"/>
</g>
<defs>
<clipPath id="clip0">
<rect width="738" height="469" fill="white"/>
</clipPath>
</defs>
</svg>
