<svg width="70" height="80" viewBox="0 0 70 80" fill="none" xmlns="http://www.w3.org/2000/svg">
<g clip-path="url(#clip0)">
<path d="M62.5 5H7.5C5.51088 5 3.60322 5.79018 2.1967 7.1967C0.790176 8.60322 0 10.5109 0 12.5L0 67.5C0 69.4891 0.790176 71.3968 2.1967 72.8033C3.60322 74.2098 5.51088 75 7.5 75H28.9453V51.2016H19.1016V40H28.9453V31.4625C28.9453 21.7516 34.7266 16.3875 43.5813 16.3875C47.8219 16.3875 52.2562 17.1438 52.2562 17.1438V26.675H47.3703C42.5563 26.675 41.0547 29.6625 41.0547 32.7266V40H51.8016L50.0828 51.2016H41.0547V75H62.5C64.4891 75 66.3968 74.2098 67.8033 72.8033C69.2098 71.3968 70 69.4891 70 67.5V12.5C70 10.5109 69.2098 8.60322 67.8033 7.1967C66.3968 5.79018 64.4891 5 62.5 5Z" fill="black"/>
</g>
<defs>
<clipPath id="clip0">
<rect width="70" height="80" fill="white"/>
</clipPath>
</defs>
</svg>
