<svg width="70" height="80" viewBox="0 0 70 80" fill="none" xmlns="http://www.w3.org/2000/svg">
<g clip-path="url(#clip0)">
<path d="M35 31.6656C33.3517 31.6662 31.7407 32.1556 30.3705 33.0717C29.0004 33.9879 27.9326 35.2898 27.3023 36.8127C26.6719 38.3357 26.5073 40.0114 26.8293 41.6279C27.1512 43.2444 27.9452 44.7291 29.1109 45.8944C30.2766 47.0597 31.7617 47.8531 33.3783 48.1745C34.9949 48.4958 36.6705 48.3306 38.1933 47.6997C39.716 47.0688 41.0175 46.0005 41.9331 44.63C42.8488 43.2595 43.3375 41.6483 43.3375 40C43.3358 37.7896 42.4568 35.6702 40.8935 34.1074C39.3302 32.5447 37.2104 31.6665 35 31.6656ZM54.4859 25.2594C54.0616 24.1841 53.4209 23.2075 52.6036 22.3902C51.7862 21.5728 50.8096 20.9321 49.7344 20.5078C46.4531 19.2125 38.6406 19.5031 35 19.5031C31.3594 19.5031 23.5547 19.2016 20.2641 20.5078C19.1888 20.9321 18.2122 21.5728 17.3949 22.3902C16.5775 23.2075 15.9368 24.1841 15.5125 25.2594C14.2188 28.5406 14.5078 36.3609 14.5078 39.9984C14.5078 43.6359 14.2188 51.4469 15.5188 54.7391C15.943 55.8143 16.5837 56.7909 17.4011 57.6083C18.2185 58.4256 19.1951 59.0663 20.2703 59.4906C23.5516 60.7859 31.3641 60.4953 35.0062 60.4953C38.6484 60.4953 46.45 60.7969 49.7406 59.4906C50.8159 59.0663 51.7925 58.4256 52.6098 57.6083C53.4272 56.7909 54.0679 55.8143 54.4922 54.7391C55.7969 51.4578 55.4969 43.6375 55.4969 40C55.4969 36.3625 55.7969 28.5531 54.4922 25.2609L54.4859 25.2594ZM35 52.8125C32.4659 52.8125 29.9888 52.0611 27.8818 50.6532C25.7748 49.2453 24.1325 47.2443 23.1628 44.9031C22.193 42.562 21.9393 39.9858 22.4337 37.5004C22.9281 35.015 24.1483 32.7321 25.9402 30.9402C27.7321 29.1483 30.015 27.9281 32.5004 27.4337C34.9858 26.9393 37.562 27.193 39.9031 28.1628C42.2443 29.1325 44.2453 30.7748 45.6532 32.8818C47.0611 34.9888 47.8125 37.4659 47.8125 40C47.8146 41.6831 47.4846 43.3502 46.8414 44.9056C46.1982 46.461 45.2546 47.8742 44.0644 49.0644C42.8742 50.2546 41.461 51.1982 39.9056 51.8414C38.3502 52.4846 36.6831 52.8146 35 52.8125ZM48.3406 29.6406C47.7491 29.6409 47.1707 29.4658 46.6787 29.1374C46.1867 28.8089 45.8031 28.342 45.5765 27.7955C45.3499 27.2491 45.2905 26.6477 45.4057 26.0675C45.5209 25.4873 45.8056 24.9543 46.2238 24.5359C46.642 24.1175 47.1749 23.8325 47.755 23.717C48.3352 23.6014 48.9366 23.6606 49.4832 23.8869C50.0297 24.1132 50.4969 24.4965 50.8256 24.9883C51.1543 25.4802 51.3297 26.0584 51.3297 26.65C51.3313 27.0428 51.2554 27.4321 51.1063 27.7955C50.9571 28.159 50.7377 28.4894 50.4606 28.7678C50.1834 29.0462 49.8541 29.2672 49.4914 29.4181C49.1286 29.5689 48.7397 29.6467 48.3469 29.6469L48.3406 29.6406ZM62.5 5H7.5C5.51088 5 3.60322 5.79018 2.1967 7.1967C0.790176 8.60322 0 10.5109 0 12.5L0 67.5C0 69.4891 0.790176 71.3968 2.1967 72.8033C3.60322 74.2098 5.51088 75 7.5 75H62.5C64.4891 75 66.3968 74.2098 67.8033 72.8033C69.2098 71.3968 70 69.4891 70 67.5V12.5C70 10.5109 69.2098 8.60322 67.8033 7.1967C66.3968 5.79018 64.4891 5 62.5 5ZM59.825 50.3125C59.6234 54.3172 58.7094 57.8656 55.7859 60.7812C52.8625 63.6969 49.3172 64.6297 45.3172 64.8203C41.1906 65.0531 28.8188 65.0531 24.6922 64.8203C20.6875 64.6188 17.1516 63.7031 14.2234 60.7812C11.2953 57.8594 10.375 54.3094 10.1844 50.3125C9.95156 46.1844 9.95156 33.8109 10.1844 29.6875C10.3859 25.6828 11.2891 22.1344 14.2234 19.2188C17.1578 16.3031 20.7031 15.3813 24.6922 15.1906C28.8188 14.9578 41.1906 14.9578 45.3172 15.1906C49.3219 15.3922 52.8688 16.3078 55.7859 19.2297C58.7031 22.1516 59.6344 25.7016 59.825 29.7062C60.0578 33.8187 60.0578 46.1813 59.825 50.3125Z" fill="black"/>
</g>
<defs>
<clipPath id="clip0">
<rect width="70" height="80" fill="white"/>
</clipPath>
</defs>
</svg>
