<svg width="1219" height="687" viewBox="0 0 1219 687" fill="none" xmlns="http://www.w3.org/2000/svg">
<g clip-path="url(#clip0)">
<path opacity="0.1" d="M1211.36 473.243C1199.13 499.638 1173.54 523.48 1146.07 546.059C1121.93 565.912 1096.1 585.096 1068.58 603.611C1060.96 608.751 1053.21 613.827 1045.35 618.838L1039.88 622.298C1035.03 625.375 1030.1 628.423 1025.09 631.443L1024.49 631.809C1019.63 634.777 1014.73 637.717 1009.78 640.627C993.595 650.168 976.489 659.641 957.578 667.485C951.135 670.164 944.487 672.66 937.604 674.896C933.881 676.11 930.08 677.247 926.2 678.308C919.842 680.042 913.313 681.555 906.494 682.798C905.356 683.01 904.207 683.213 903.058 683.406C896.078 684.581 889.012 685.439 881.87 686.027C855.7 688.176 828.671 686.605 802.458 682.924C789.357 681.083 776.459 678.712 763.981 676.014C762.446 675.686 760.921 675.349 759.385 675.05C716.892 665.51 676.998 652.558 634.204 643.451C619.457 640.309 604.422 637.643 589.102 635.452C581.628 634.385 574.111 633.422 566.551 632.561C548.757 630.576 530.737 629.246 512.643 628.571C488.244 627.607 463.051 628.022 439.834 631.848C436.742 632.355 433.688 632.927 430.674 633.563C426.851 634.366 423.1 635.282 419.42 636.31C409.5 639.186 399.845 642.753 390.544 646.978C388.708 647.787 386.893 648.606 385.078 649.435C379.387 652.037 373.77 654.697 368.068 657.28C357.805 662.1 347.125 666.167 336.131 669.442C330.109 671.148 323.986 672.551 317.789 673.643C301.392 676.592 283.941 677.758 266.416 677.835C257.964 677.835 249.502 677.671 241.137 677.276H240.879C238.023 677.141 235.155 676.987 232.288 676.795C219.23 675.995 206.215 674.761 193.393 673.075C149.461 667.293 107.795 656.364 74.2794 639.692C28.7582 617.065 -0.150303 583.326 4.18812 549.616C7.30233 525.33 26.6427 502.78 44.9951 480.702C79.1333 439.59 111.113 397.544 127.941 353.224C141.589 317.249 145.659 279.212 177.07 246.88C187.132 236.53 199.997 227.085 214.977 218.807C226.175 212.655 237.912 207.331 250.071 202.887C263.815 197.836 277.952 193.697 292.371 190.504C304.867 187.721 317.531 185.585 330.3 184.105C337.237 183.295 344.26 182.669 351.326 182.245C356.767 181.904 362.233 181.689 367.724 181.599H368.573C371.93 181.541 375.288 181.541 378.646 181.599C403.128 181.939 427.544 183.998 451.668 187.757C466.767 190.022 481.737 192.797 496.395 195.852C505.143 197.67 513.813 199.575 522.404 201.567C525.024 202.174 527.645 202.791 530.233 203.417C591.357 218.114 645.136 238.409 704.027 255.062C704.328 255.148 704.618 255.235 704.918 255.303C717.006 258.638 729.279 261.405 741.688 263.59C750.805 265.229 760.126 266.645 769.608 267.888C784.127 269.816 798.957 271.338 813.895 272.649L817.191 272.938C839.109 274.866 861.22 276.302 882.697 277.978C890.322 278.576 897.882 279.193 905.334 279.906C910.059 280.33 914.741 280.779 919.38 281.255C922.709 281.602 926.049 281.949 929.389 282.315C932.729 282.681 936.262 283.067 939.698 283.462C941.932 283.712 944.155 283.973 946.388 284.252C959.919 285.861 973.417 287.663 986.766 289.726C994.884 290.979 1002.96 292.328 1010.94 293.783C1016.72 294.837 1022.44 295.948 1028.12 297.117C1032.33 297.972 1036.5 298.871 1040.64 299.816C1074.26 307.4 1105.73 317.345 1132.84 330.77C1203.26 365.549 1234.76 422.764 1211.36 473.243Z" fill="#EC7000"/>
<path opacity="0.1" d="M267.382 87.1182C280.21 87.1182 290.61 77.7857 290.61 66.2735C290.61 54.7612 280.21 45.4287 267.382 45.4287C254.554 45.4287 244.154 54.7612 244.154 66.2735C244.154 77.7857 254.554 87.1182 267.382 87.1182Z" fill="#EC7000"/>
<path opacity="0.1" d="M742.149 41.6895C754.978 41.6895 765.377 32.357 765.377 20.8448C765.377 9.33251 754.978 0 742.149 0C729.321 0 718.921 9.33251 718.921 20.8448C718.921 32.357 729.321 41.6895 742.149 41.6895Z" fill="#EC7000"/>
<path opacity="0.1" d="M1023.66 88.3709C1036.49 88.3709 1046.89 79.0384 1046.89 67.5262C1046.89 56.0139 1036.49 46.6814 1023.66 46.6814C1010.83 46.6814 1000.44 56.0139 1000.44 67.5262C1000.44 79.0384 1010.83 88.3709 1023.66 88.3709Z" fill="#EC7000"/>
<path opacity="0.1" d="M38.9277 151.638C60.4268 151.638 77.8553 135.997 77.8553 116.704C77.8553 97.41 60.4268 81.7695 38.9277 81.7695C17.4285 81.7695 0 97.41 0 116.704C0 135.997 17.4285 151.638 38.9277 151.638Z" fill="#EC7000"/>
<path opacity="0.1" d="M76.2446 324.139C97.7437 324.139 115.172 308.499 115.172 289.205C115.172 269.912 97.7437 254.271 76.2446 254.271C54.7454 254.271 37.3169 269.912 37.3169 289.205C37.3169 308.499 54.7454 324.139 76.2446 324.139Z" fill="#EC7000"/>
<path opacity="0.1" d="M1121.03 260.641C1142.53 260.641 1159.96 245.001 1159.96 225.707C1159.96 206.414 1142.53 190.773 1121.03 190.773C1099.53 190.773 1082.1 206.414 1082.1 225.707C1082.1 245.001 1099.53 260.641 1121.03 260.641Z" fill="#EC7000"/>
<path d="M380.525 230.661C380.717 233.594 380.526 236.537 379.955 239.43C377.808 248.383 368.723 254.531 359.928 259.196C351.133 263.86 341.468 268.274 336.238 276.147C329.935 285.659 331.943 298.447 339.342 307.332C346.741 316.218 358.467 321.508 370.538 323.715C392.552 327.792 416.66 322.067 433.166 308.383C449.671 294.698 457.95 273.314 453.902 253.452C444.946 254.58 436.967 247.487 434.068 239.797C431.168 232.106 431.77 223.77 430.642 215.704C430.56 214.34 430.102 213.016 429.31 211.849C428.054 210.288 425.831 209.652 423.758 209.141C413.406 206.588 395.988 200.998 385.26 203.138C375.596 205.123 380.363 223.375 380.525 230.661Z" fill="#BE6F72"/>
<path opacity="0.1" d="M380.525 230.661C380.717 233.594 380.526 236.537 379.955 239.43C377.808 248.383 368.723 254.531 359.928 259.196C351.133 263.86 341.468 268.274 336.238 276.147C329.935 285.659 331.943 298.447 339.342 307.332C346.741 316.218 358.467 321.508 370.538 323.715C392.552 327.792 416.66 322.067 433.166 308.383C449.671 294.698 457.95 273.314 453.902 253.452C444.946 254.58 436.967 247.487 434.068 239.797C431.168 232.106 431.77 223.77 430.642 215.704C430.56 214.34 430.102 213.016 429.31 211.849C428.054 210.288 425.831 209.652 423.758 209.141C413.406 206.588 395.988 200.998 385.26 203.138C375.596 205.123 380.363 223.375 380.525 230.661Z" fill="black"/>
<path d="M368.014 657.299C357.752 662.119 347.071 666.187 336.077 669.461C330.056 671.168 323.932 672.57 317.736 673.662C317.297 666.252 317.747 658.821 319.078 651.497C319.916 647.286 321.151 643.113 321.473 638.844C321.929 632.682 320.46 626.528 317.231 621.074C329.194 619.609 340.555 617.219 352.572 617.922L353.334 617.97C354.763 618.003 356.177 618.241 357.522 618.674C359.371 619.477 360.942 620.716 362.065 622.259C362.684 623.016 363.254 623.804 363.772 624.62C367.166 629.882 368.454 635.953 368.723 642.207C368.849 647.246 368.612 652.287 368.014 657.299Z" fill="#BE6F72"/>
<path d="M430.631 633.573C426.808 634.376 423.057 635.291 419.377 636.319C409.457 639.196 399.803 642.763 390.501 646.987C389.897 644.363 389.602 641.688 389.62 639.008C395.101 635.616 401.287 633.248 407.808 632.044C414.329 630.841 421.054 630.826 427.582 632.002C428.454 632.097 429.284 632.396 429.987 632.869C430.242 633.072 430.459 633.309 430.631 633.573Z" fill="#BE6F72"/>
<path d="M449.091 584.925C448.361 591.228 447.287 597.55 444.796 603.476C442.1 609.837 437.719 616.004 438.277 622.798C438.524 625.747 439.641 628.947 439.802 631.867C436.71 632.374 433.656 632.946 430.642 633.582C426.819 634.385 423.068 635.301 419.388 636.329C409.468 639.205 399.813 642.772 390.512 646.997C388.676 647.806 386.861 648.626 385.046 649.454C384.294 649.368 383.553 649.262 382.802 649.136C377.432 648.259 371.784 646.101 368.745 642.246C368.049 641.359 367.503 640.385 367.123 639.355C365.373 634.662 367.198 628.812 363.558 625.092L363.386 625.227L363.257 625.304C361.263 626.925 359.073 628.341 356.728 629.525C351.39 632.236 345.477 633.91 339.372 634.438C333.267 634.966 327.107 634.336 321.29 632.59C318.986 631.886 316.76 630.989 314.643 629.911C309.725 627.395 304.978 623.165 305.365 618.115C305.58 615.301 307.373 612.603 306.89 609.817C306.535 607.823 305.075 606.165 303.98 604.401C296.795 592.837 305.365 577.967 300.855 565.401C300.747 565.102 300.629 564.803 300.511 564.514C300.178 563.695 299.802 562.905 299.437 562.114C298.514 560.274 297.483 558.462 296.667 556.573C295.987 554.985 295.448 553.352 295.056 551.687C294.042 546.855 293.681 541.93 293.982 537.02C293.982 524.077 296.559 510.827 300.232 498.356C300.887 496.14 301.617 493.008 302.584 489.596C303.526 486.001 304.797 482.481 306.385 479.073C308.533 474.64 311.454 471.103 315.449 470.265C321.462 469.002 330.655 471.672 336.754 472.327L360.862 474.91L409.068 480.085C417.391 480.981 426.132 482.012 432.994 486.214C433.445 486.493 433.885 486.782 434.326 487.091C436.138 488.372 437.762 489.855 439.158 491.504C439.652 492.073 440.125 492.671 440.576 493.278C442.14 495.426 443.47 497.705 444.549 500.081C450.53 512.976 450.67 527.364 450.713 541.328C450.713 555.899 450.767 570.46 449.091 584.925Z" fill="#3F3D56"/>
<path opacity="0.1" d="M356.674 629.583C355.224 624.572 352.164 617.315 351.713 615.34C350.2 608.712 349.103 602.014 348.427 595.276C347.235 583.268 345.087 566.365 349.812 554.945C354.247 557.065 358.145 563.069 360.196 567.165C367.627 582.015 359.262 600.248 366.242 615.272C366.764 616.172 367.089 617.154 367.198 618.163C367.077 619.445 366.564 620.672 365.716 621.71L363.364 625.218L356.674 629.583Z" fill="black"/>
<path d="M511.333 171.114C519.236 159.55 530.061 148.178 529.384 134.657C529.137 129.839 527.376 125.126 526.034 120.404C522.187 106.738 521.933 92.4555 525.293 78.6858C538.572 76.7712 552.164 79.5032 563.265 86.3183C566.776 88.4962 570.105 91.2042 571.652 94.7795C573.08 98.0754 572.844 101.747 572.586 105.274C571.995 113.379 571.19 122.023 565.627 128.403C563.898 130.398 561.772 132.084 560.086 134.098C557.627 136.989 556.188 140.517 554.781 143.957L536.525 188.528C527.312 210.992 517.325 234.487 497.029 250.031C496.535 250.407 481.995 231.875 480.792 230.015C475.927 222.392 478.053 219.173 483.938 212.794C495.547 200.179 501.85 184.962 511.333 171.114Z" fill="#BE6F72"/>
<path d="M302.122 551.013C302.059 554.34 301.747 557.659 301.187 560.949C300.994 562.163 300.769 563.368 300.5 564.572C296.838 581.726 287.721 598.041 281.342 614.752C272.934 636.811 269.24 655.95 266.308 677.854C257.857 677.854 249.395 677.691 241.029 677.296H240.772C237.915 677.161 235.048 677.006 232.181 676.814C234.769 656.383 230.033 634.951 234.661 614.501C236.53 606.271 239.719 598.282 241.641 590.091C242.234 587.679 242.682 585.241 242.984 582.786C243.252 580.454 243.392 578.035 244.562 575.934C244.669 575.731 244.791 575.535 244.927 575.346C245.956 573.892 247.231 572.592 248.707 571.491C261.792 561.195 277.796 554.347 294.948 551.707C297.386 551.408 299.759 551.157 302.122 551.013Z" fill="#FBBEBE"/>
<path opacity="0.1" d="M302.122 551.013C302.059 554.34 301.747 557.659 301.187 560.949C300.994 562.163 300.769 563.368 300.5 564.572C296.838 581.726 287.721 598.041 281.342 614.752C272.934 636.811 269.24 655.95 266.308 677.854C257.857 677.854 249.395 677.691 241.029 677.296H240.772C237.915 677.161 235.048 677.006 232.181 676.814C234.769 656.383 230.033 634.951 234.661 614.501C236.53 606.271 239.719 598.282 241.641 590.091C242.234 587.679 242.682 585.241 242.984 582.786C243.252 580.454 243.392 578.035 244.562 575.934C244.669 575.731 244.791 575.535 244.927 575.346C245.956 573.892 247.231 572.592 248.707 571.491C261.792 561.195 277.796 554.347 294.948 551.707C297.386 551.408 299.759 551.157 302.122 551.013Z" fill="black"/>
<path d="M247.676 594.928C247.503 600.284 247.012 605.627 246.205 610.935C243.338 632.628 242.801 655.265 240.836 677.286C237.979 677.151 235.112 676.997 232.245 676.804C219.187 676.004 206.171 674.771 193.349 673.084C194.337 668.124 195.333 663.165 196.335 658.205C197.559 652.124 198.783 645.985 198.429 639.817C198.096 633.987 196.356 628.311 194.971 622.596C192.018 610.357 190.364 597.155 185.5 585.609C182.962 579.134 178.913 573.22 173.623 568.263C193.747 561.17 213.087 560.765 234.704 561.517C236.239 561.441 237.764 561.776 239.085 562.481C240.11 563.277 240.871 564.31 241.287 565.468C244.535 572.481 246.574 579.896 247.333 587.46C247.591 589.942 247.706 592.435 247.676 594.928Z" fill="#FBBEBE"/>
<path d="M409.777 225.688C432.907 225.688 451.658 208.861 451.658 188.104C451.658 167.347 432.907 150.52 409.777 150.52C386.647 150.52 367.896 167.347 367.896 188.104C367.896 208.861 386.647 225.688 409.777 225.688Z" fill="#BE6F72"/>
<path d="M418.486 275.945C423.855 267.725 428.559 257.461 438.89 255.177C444.721 253.876 450.788 255.65 456.469 257.394C458.115 257.743 459.609 258.521 460.764 259.63C461.603 260.825 462.054 262.207 462.064 263.619C463.862 280.609 463.801 297.716 461.881 314.695C460.517 326.713 458.219 338.672 457.811 350.747C457.242 367.487 460.313 384.226 459.304 400.946C458.541 413.619 455.449 426.07 452.377 438.453L439.491 490.3C439.26 491.904 438.543 493.421 437.418 494.685C436.332 495.579 435.031 496.238 433.617 496.612C414.964 502.53 395.136 504.871 375.413 503.485C355.69 502.099 336.509 497.016 319.111 488.565C314.461 486.272 309.822 483.622 306.793 479.709C302.498 474.158 302.1 466.815 303.497 460.165C304.893 453.516 307.91 447.242 309.94 440.718C313.075 430.599 313.816 420.037 314.525 409.552C315.47 395.752 316.415 381.865 314.772 368.113C313.645 358.64 311.293 349.311 309.521 339.915C306.911 325.754 305.397 311.447 304.989 297.098C304.721 288.531 305.161 279.019 311.765 272.842C314.987 269.835 319.282 268.023 323.653 266.559C330.987 264.13 339.181 262.704 346.591 264.92C354 267.137 359.971 274.114 358.221 280.947C357.415 284.117 355.128 286.893 354.57 290.111C353.829 294.371 356.341 298.659 359.939 301.541C379.29 317.23 408.832 290.825 418.486 275.945Z" fill="#E3E8F4"/>
<path d="M420.022 237.542C425.898 235.599 432.285 235.264 438.374 236.578C442.251 237.407 446.439 238.871 450.015 237.32C451.314 236.761 452.388 235.845 453.698 235.325C457.242 233.928 461.838 235.643 464.974 233.61C466.95 232.328 467.594 229.996 468.26 227.876C471.484 217.756 478.093 208.768 487.192 202.126C486.064 209.517 485.248 217.93 490.693 223.578C493.173 226.141 496.653 227.75 500.175 229.003C505.233 230.805 510.785 232 516.122 231.017C521.459 230.034 526.452 226.411 527.301 221.583C527.118 228.839 519.419 233.908 517.26 240.915C516.444 243.536 516.519 246.321 515.95 249C514.5 255.842 509.056 261.335 504.299 266.848C489.104 284.578 479.399 305.595 476.163 327.772C475.943 330.404 475.329 332.997 474.338 335.482C473.285 337.388 472.094 339.229 470.773 340.994C462.901 352.925 465.328 367.978 468.002 381.605C472.179 402.95 476.346 423.863 483.111 444.669C484.271 448.225 485.581 451.935 488.534 454.528C487.6 462.941 478.139 466.776 469.634 470.409C461.237 474.003 453.49 478.71 446.653 484.373C444.205 486.397 441.789 488.671 440.898 491.553C440.06 494.261 440.661 497.239 439.587 499.869C438.514 502.5 434.218 504.389 432.328 502.173C429.966 494.241 434.003 485.944 433.821 477.733C433.692 472.192 431.673 466.805 431.383 461.264C431.104 454.99 433.166 448.832 435.356 442.876C441.456 426.291 448.823 409.86 450.938 392.504C453.054 375.148 449.102 356.192 435.378 343.808C419.087 329.045 410.045 309.029 392.584 295.469C389.814 293.32 386.678 290.651 387.14 287.394C387.459 285.959 388.163 284.616 389.191 283.481C395.183 275.887 403.151 269.69 409.594 262.424C416.038 255.158 421.192 246.793 420.022 237.542Z" fill="#3F3D56"/>
<path d="M362.688 253.086C361.614 254.05 360.873 255.38 359.627 256.208C358.172 257.014 356.513 257.475 354.805 257.548C348.486 258.409 342.113 258.921 335.723 259.08C330.353 259.08 324.78 258.656 319.615 259.976C312.409 261.807 306.653 266.915 303.045 272.794C299.437 278.672 297.729 285.322 296.344 291.942C293.29 306.529 291.656 321.326 291.458 336.166C300.31 329.832 308.198 322.484 314.922 314.31C320.077 308.036 324.748 301.097 332.104 296.905C335.487 294.978 339.288 293.706 342.692 291.827C349.79 287.904 354.709 281.563 359.434 275.444C362.913 270.905 372.975 262.039 373.77 256.604C374.446 251.409 366.446 248.875 362.688 253.086Z" fill="#3F3D56"/>
<path d="M400.101 162.373C401.428 163.088 402.698 163.883 403.903 164.753C411.195 169.321 420.956 168.473 429.772 167.433C432.479 167.124 435.26 166.777 437.579 165.505C441.306 163.443 443.056 159.203 442.691 155.28C442.326 151.358 440.124 147.744 437.44 144.68C433.883 140.624 429.446 137.259 424.398 134.787C419.349 132.316 413.795 130.79 408.07 130.301C405.105 129.953 402.091 130.24 399.275 131.14C395.806 132.421 393.196 135.062 389.996 136.826C380.557 142.03 366.017 139.717 359.928 148.024C355.472 154.153 358.65 162.479 356.545 169.524C354.978 174.786 350.457 179.575 351.326 184.943C351.81 187.834 353.829 190.359 355.439 192.942C359.138 198.879 360.85 205.648 360.368 212.437C364.503 215.058 370.269 210.982 371.418 206.568C372.568 202.155 371.247 197.452 372.224 192.999C373.953 185.184 381.642 179.45 385.11 172.28C387.602 167.143 391.661 158.47 400.101 162.373Z" fill="#3F3D56"/>
<path d="M298.557 247.921C298.234 249.675 298.03 251.612 299.115 253.096C301.263 255.987 306.181 254.946 310.047 255.38C316.071 256.045 320.517 261.162 321.688 266.539C322.858 271.917 321.462 277.391 319.937 282.672C316.487 294.641 312.377 306.44 307.609 318.068C294.787 316.709 281.289 312.286 274.481 302.466C268.295 293.532 268.929 282.151 264.998 272.244C262.238 265.267 257.288 259.196 252.391 253.24C260.263 254.127 265.89 246.051 266.351 238.939C266.813 231.827 264.322 224.609 266.018 217.661C266.416 216.013 297.44 221.207 300.457 223.086C309.177 228.512 299.931 240.385 298.557 247.921Z" fill="#FBBEBE"/>
<path opacity="0.1" d="M298.557 247.921C298.234 249.675 298.03 251.612 299.115 253.096C301.263 255.987 306.181 254.946 310.047 255.38C316.071 256.045 320.517 261.162 321.688 266.539C322.858 271.917 321.462 277.391 319.937 282.672C316.487 294.641 312.377 306.44 307.609 318.068C294.787 316.709 281.289 312.286 274.481 302.466C268.295 293.532 268.929 282.151 264.998 272.244C262.238 265.267 257.288 259.196 252.391 253.24C260.263 254.127 265.89 246.051 266.351 238.939C266.813 231.827 264.322 224.609 266.018 217.661C266.416 216.013 297.44 221.207 300.457 223.086C309.177 228.512 299.931 240.385 298.557 247.921Z" fill="black"/>
<path d="M291.651 236.289C314.781 236.289 333.532 219.462 333.532 198.705C333.532 177.947 314.781 161.12 291.651 161.12C268.521 161.12 249.771 177.947 249.771 198.705C249.771 219.462 268.521 236.289 291.651 236.289Z" fill="#FBBEBE"/>
<path d="M278.755 242.524C280.279 240.384 277.681 237.397 278.873 235.094C279.581 233.706 281.375 233.108 282.76 232.203C284.497 230.934 285.883 229.321 286.809 227.49C293.329 216.246 295.303 203.321 292.393 190.918C291.405 186.755 290.524 181.223 294.766 179.353C295.942 178.883 297.23 178.684 298.514 178.775C306.16 178.997 313.548 183.594 320.968 181.965C323.501 181.347 325.763 180.05 327.452 178.247C329.141 176.443 330.176 174.22 330.418 171.875C330.902 165.65 325.704 160.311 320.592 156.119C311.389 148.525 297.365 146.838 284.865 146.655L261.616 146.308C254.174 146.193 245.83 146.405 240.654 151.194C233.201 158.085 236.949 169.36 235.875 178.91C234.962 186.532 230.713 193.517 224.063 198.329C219.241 201.779 212.604 205.074 212.69 210.587C212.69 212.514 213.614 214.268 214.204 216.09C216.578 223.298 214.312 231.268 209.759 237.58C205.205 243.892 198.547 248.749 191.642 252.999C187.948 255.264 184.125 257.442 181.204 260.516C178.002 264.067 176.101 268.419 175.76 272.977C175.3 276.459 176.098 279.983 178.037 283.028C182.579 289.543 193.479 290.497 200.942 286.719C208.406 282.941 212.959 275.791 215.976 268.601C217.78 264.332 219.617 259.446 224.234 257.529C230.076 255.09 236.906 258.945 240.707 263.619C244.509 268.293 246.85 273.998 251.715 277.795C259.339 283.751 272.311 282.787 278.755 275.791C283.361 270.77 284.382 263.821 284.124 257.317C283.996 252.019 282.128 246.873 278.755 242.524Z" fill="#3F3D56"/>
<path d="M293.788 291.509C289.01 292.424 284.016 290.4 280.462 287.374C276.907 284.348 274.513 280.445 272.021 276.668C265.705 267.139 258.464 258.129 250.383 249.742C243.338 242.447 233.534 235.036 223.074 237.291C219.572 238.198 216.323 239.758 213.538 241.869C204.316 248.421 197.097 256.967 192.558 266.706C188.019 276.444 186.307 287.057 187.583 297.551C188.399 303.69 190.257 309.694 191.03 315.861C191.551 320.945 191.702 326.054 191.481 331.155C191.191 346.69 190.601 363.121 181.269 376.208C166.804 396.446 159.061 420.615 148.441 442.703C142.706 454.643 139.27 467.354 135.898 479.998C133.9 487.502 131.907 495.003 129.916 502.5L116.923 551.553C115.58 556.612 114.238 561.912 115.655 566.972C117.803 574.527 125.718 579.808 134.062 581.957C142.405 584.106 151.243 583.74 159.91 583.807C176.49 583.952 193.199 585.802 208.76 590.968C213.206 592.442 217.641 594.206 222.376 594.553C227.112 594.9 231.826 593.791 236.261 592.249C248.364 588.048 258.737 580.685 269.884 574.739C276.847 570.974 284.18 567.79 291.791 565.227C295.614 563.946 299.716 562.731 302.347 559.927C304.334 557.817 305.225 555.06 305.88 552.362C309.51 537.174 307.072 521.437 305.88 505.941C304.688 490.445 294.368 474.071 302.906 460.56C304.624 457.833 306.675 455.212 307.555 452.186C308.715 448.235 307.738 443.985 308.715 439.995C309.435 437.046 311.164 434.396 312.345 431.572C314.407 426.6 314.686 421.184 314.664 415.874C314.616 404.215 313.249 392.591 310.584 381.181C307.201 366.725 318.391 352.434 324.802 338.778C327.1 333.892 330.354 329.276 331.309 324.043C332.169 319.321 331.062 314.512 330.236 309.78C329.001 302.447 328.498 295.029 328.732 287.615C328.936 280.966 329.72 274.191 327.948 267.725C326.176 261.258 321.118 254.985 313.848 253.655C313.033 253.44 312.175 253.39 311.336 253.509C310.497 253.627 309.697 253.91 308.994 254.339C308.155 255.077 307.564 256.012 307.287 257.037C304.924 263.533 305.386 270.529 304.065 277.275C302.745 284.021 301.198 290.082 293.788 291.509Z" fill="#F86D70"/>
<path d="M192.448 332.899C192.888 330.23 191.503 326.684 188.496 326.78C185.725 326.876 184.49 329.989 184.501 332.485C184.512 334.981 184.888 337.843 182.923 339.597C181.183 341.149 178.305 341.101 176.286 342.363C175.574 342.819 174.994 343.422 174.596 344.122C174.198 344.821 173.993 345.596 173.999 346.382C173.999 347.721 174.675 349.003 174.718 350.342C174.761 351.682 173.763 353.233 172.281 353.147C171.519 354.293 171.203 355.633 171.379 356.958C171.556 358.283 172.217 359.518 173.258 360.471C174.031 361.145 175.04 361.724 175.298 362.668C175.38 363.33 175.321 364.001 175.126 364.644C174.675 367.294 176.716 370.262 179.69 370.551C178.026 371.621 178.359 374.126 179.884 375.37C181.408 376.613 183.599 376.854 185.65 376.854C190.305 376.831 194.909 375.976 199.192 374.338C200.658 373.904 201.955 373.101 202.929 372.026C203.38 371.471 203.597 370.79 203.54 370.105C203.483 369.419 203.156 368.775 202.617 368.286C204.701 368.595 207.203 368.768 208.567 367.323C210.467 365.299 208.427 362.302 206.419 360.346C207.252 360.235 208.03 359.906 208.656 359.402C209.283 358.897 209.731 358.238 209.943 357.507C210.156 356.776 210.125 356.005 209.853 355.29C209.582 354.574 209.082 353.946 208.416 353.484C207.729 353.031 206.795 352.636 206.698 351.875C206.601 351.113 207.321 350.622 207.622 349.947C208.309 348.434 206.741 346.892 205.227 345.977C201.64 343.837 196.357 343.876 193.167 341.717C189.978 339.559 191.986 335.791 192.448 332.899Z" fill="#BE6F72"/>
<path d="M413.986 186.668C411.385 186.903 408.768 186.958 406.158 186.832C405.713 186.788 405.267 186.903 404.915 187.152C404.564 187.401 404.335 187.763 404.279 188.162L399.285 221.776C398.901 224.216 397.788 226.517 396.063 228.435C394.642 229.961 393.585 231.733 392.959 233.641C392.333 235.549 392.15 237.553 392.423 239.527V296.626C392.423 296.626 392.101 304.239 398.619 304.239C406.421 305.119 414.314 305.119 422.116 304.239C422.116 304.239 427.335 303.352 427.335 296.327V240.105C427.733 238.143 427.651 236.128 427.094 234.197C426.538 232.267 425.521 230.468 424.113 228.926C422.446 227.001 421.369 224.719 420.988 222.306L415.801 187.988C415.742 187.602 415.522 187.251 415.185 187.006C414.848 186.761 414.419 186.64 413.986 186.668Z" fill="#3F3D56"/>
<path opacity="0.1" d="M413.986 186.668C411.385 186.903 408.768 186.958 406.158 186.832C405.713 186.788 405.267 186.903 404.915 187.152C404.564 187.401 404.335 187.763 404.279 188.162L399.285 221.776C398.901 224.216 397.788 226.517 396.063 228.435C394.642 229.961 393.585 231.733 392.959 233.641C392.333 235.549 392.15 237.553 392.423 239.527V296.626C392.423 296.626 392.101 304.239 398.619 304.239C406.421 305.119 414.314 305.119 422.116 304.239C422.116 304.239 427.335 303.352 427.335 296.327V240.105C427.733 238.143 427.651 236.128 427.094 234.197C426.538 232.267 425.521 230.468 424.113 228.926C422.446 227.001 421.369 224.719 420.988 222.306L415.801 187.988C415.742 187.602 415.522 187.251 415.185 187.006C414.848 186.761 414.419 186.64 413.986 186.668Z" fill="black"/>
<path d="M414.019 240.548H406.105C399.551 240.548 394.238 245.316 394.238 251.197V277.921C394.238 283.802 399.551 288.569 406.105 288.569H414.019C420.572 288.569 425.885 283.802 425.885 277.921V251.197C425.885 245.316 420.572 240.548 414.019 240.548Z" fill="#EC7000"/>
<path d="M520.375 41.4196C518.08 42.5516 515.688 43.5183 513.223 44.3107C512.795 44.4251 512.434 44.6841 512.216 45.033C511.997 45.3818 511.939 45.7932 512.052 46.1803L521.867 78.9459C522.569 81.3242 522.539 83.8287 521.781 86.193C521.12 88.0923 520.902 90.0938 521.142 92.0722C521.383 94.0505 522.075 95.9629 523.177 97.6898L547.683 150.385C547.683 150.385 550.647 157.516 556.671 155.261C564.255 153.373 571.544 150.634 578.363 147.108C578.363 147.108 582.798 144.487 579.792 138.011L555.662 86.1255C555.187 84.1774 554.247 82.3449 552.906 80.7544C551.566 79.1638 549.857 77.8531 547.898 76.9125C545.536 75.7133 543.564 73.9829 542.174 71.8917L522.662 42.0171C522.441 41.6715 522.079 41.4163 521.652 41.3049C521.226 41.1935 520.768 41.2346 520.375 41.4196Z" fill="#3F3D56"/>
<path d="M543.544 91.143L536.24 93.8781C530.192 96.143 527.335 102.379 529.859 107.807L541.326 132.469C543.85 137.896 550.799 140.46 556.847 138.195L564.151 135.46C570.199 133.195 573.056 126.959 570.532 121.532L559.065 96.8696C556.541 91.442 549.592 88.8781 543.544 91.143Z" fill="#EC7000"/>
<path d="M219.015 243.517C207.471 247.786 202.907 261.065 205.613 271.994C208.319 282.922 216.47 292.029 224.417 300.693L246.689 325.074C252.842 331.82 259.575 338.923 268.961 341.274C282.685 344.714 296.409 336.87 308.275 329.777C343.695 308.596 381.556 290.903 421.203 277.005C425.08 275.656 429.053 274.287 432.242 271.878C438.857 266.886 440.715 257.683 437.032 250.677C433.348 243.671 424.768 239.112 416.123 239.055C407.479 238.997 399.07 243.102 393.873 249.308C391.392 252.267 389.577 255.65 387.183 258.656C381.126 266.212 371.676 270.886 362.43 275.107C340.136 285.314 317.187 294.324 293.703 302.09C289.407 303.497 284.564 304.837 280.516 302.977C278.035 301.83 276.36 299.662 274.856 297.541C268.005 287.864 262.556 277.443 258.641 266.53C255.709 258.338 253.336 249.414 246.291 243.594C236.304 235.344 218.221 237.32 210.736 247.448C210.736 247.448 201.962 258.965 207.332 263.783C212.701 268.602 219.015 243.517 219.015 243.517Z" fill="#FBBEBE"/>
<path d="M821.283 203.639C822.851 207.388 822.894 211.493 822.668 215.492C822.389 220.369 821.025 226.093 815.978 227.953C812.692 229.138 808.633 228.242 805.712 230.034C802.168 232.193 802.34 236.838 802.887 240.635C804.402 251.072 806.109 261.894 812.445 270.722C815.849 275.453 820.456 279.395 825.127 283.163C834.438 290.699 844.65 298.062 856.882 300.577C858.874 301.081 860.97 301.16 863.003 300.808C865.007 300.253 866.826 299.259 868.297 297.917C875.384 292.077 879.036 283.741 883.761 276.186C887.1 270.779 891.084 265.585 892.964 259.63C894.511 254.426 894.409 248.937 892.667 243.783C890.925 238.629 887.613 234.014 883.106 230.458C881.011 228.849 878.692 227.5 876.662 225.833C871.357 221.515 868.265 215.319 866.997 208.997C865.73 202.675 865.924 196.17 866.536 189.723C855.797 188.981 845.133 190.147 834.652 192.026C829.992 192.865 823.431 193.25 819.21 195.245C814.464 197.51 819.983 200.41 821.283 203.639Z" fill="#FBBEBE"/>
<path opacity="0.1" d="M821.283 203.639C822.851 207.388 822.894 211.493 822.668 215.492C822.389 220.369 821.025 226.093 815.978 227.953C812.692 229.138 808.633 228.242 805.712 230.034C802.168 232.193 802.34 236.838 802.887 240.635C804.402 251.072 806.109 261.894 812.445 270.722C815.849 275.453 820.456 279.395 825.127 283.163C834.438 290.699 844.65 298.062 856.882 300.577C858.874 301.081 860.97 301.16 863.003 300.808C865.007 300.253 866.826 299.259 868.297 297.917C875.384 292.077 879.036 283.741 883.761 276.186C887.1 270.779 891.084 265.585 892.964 259.63C894.511 254.426 894.409 248.937 892.667 243.783C890.925 238.629 887.613 234.014 883.106 230.458C881.011 228.849 878.692 227.5 876.662 225.833C871.357 221.515 868.265 215.319 866.997 208.997C865.73 202.675 865.924 196.17 866.536 189.723C855.797 188.981 845.133 190.147 834.652 192.026C829.992 192.865 823.431 193.25 819.21 195.245C814.464 197.51 819.983 200.41 821.283 203.639Z" fill="black"/>
<path d="M761.361 232C743.921 226.633 735.588 205.663 717.332 203.311C714.454 202.935 711.501 203.08 708.677 202.482C698.164 200.247 693.643 189.337 690.604 180.038C680.359 149.036 666.979 118.699 647.971 91.2139C639.949 79.6495 627.267 70.1475 621.479 57.4845C620.147 54.5934 619.471 51.2976 617.076 49.0136C614.681 46.7296 609.559 46.402 608.26 49.3123C607.897 50.3433 607.816 51.4373 608.023 52.5022L609.28 64.5002L587.437 62.7366C585.417 62.4274 583.343 62.5596 581.391 63.1221C579.284 64.0685 577.604 65.6374 576.634 67.5648C569.246 80.0254 577.117 96.3504 590.154 104.233C605.382 113.437 627.128 114.834 637.243 128.567C643.257 136.739 643.375 147.253 647.338 156.379C649.228 160.745 651.988 164.754 654.189 168.984C658.388 177.05 660.535 185.82 663.789 194.223C668.45 206.241 675.355 217.439 682.238 228.57C687.543 237.166 692.977 245.916 701.138 252.489C706.508 256.806 712.822 260.005 719.136 263.089C734.665 270.702 752.974 278.026 769.426 272.186C770.371 259.022 766.687 244.345 761.361 232Z" fill="#FBBEBE"/>
<path d="M814.313 646.852C812.992 659.429 804.487 670.82 802.5 682.924C789.399 681.083 776.502 678.712 764.024 676.014C762.488 675.686 760.963 675.349 759.428 675.05C766.494 657.704 760.341 638.276 762.209 619.801C762.392 618.028 762.649 616.255 762.993 614.501C779.176 609.548 793.791 602.937 810.758 604.864C811.091 607.948 811.435 611.041 811.768 614.125C812.448 620.287 813.121 626.441 813.787 632.59C814.468 637.318 814.644 642.094 814.313 646.852Z" fill="#FBBEBE"/>
<path d="M926.232 678.307C919.875 680.042 913.345 681.555 906.526 682.798C905.388 683.01 904.239 683.213 903.09 683.405C896.11 684.581 889.044 685.439 881.903 686.027C881.172 672.631 871.164 660.315 869.703 646.563C869.405 643.146 869.444 639.711 869.822 636.3C869.95 634.951 870.101 633.602 870.24 632.252L873.269 604.527C875.679 604.255 878.11 604.148 880.539 604.209C894.499 604.508 907.203 609.933 921.034 614.164C922.065 620.013 922.425 625.942 922.108 631.857C921.582 646.91 918.887 662.146 925.115 675.956C925.469 676.737 925.856 677.517 926.232 678.307Z" fill="#FBBEBE"/>
<path d="M744.963 466.93C746.842 480.075 739.358 492.661 736.115 505.584C733.967 514.132 733.677 522.931 733.387 531.7L731.69 584.231C731.518 589.484 731.368 594.832 733.151 599.872C736.737 609.972 747.787 616.795 759.289 619.223C770.79 621.652 782.817 620.418 794.533 619.031C800.278 618.346 806.27 617.546 811.027 614.569C817.567 610.473 820.424 603.178 822.894 596.374L829.863 577.168C837.885 593.377 834.491 611.099 839.302 628.301C839.611 629.892 840.349 631.39 841.45 632.667C843.48 634.691 846.819 635.009 849.858 635.201C870.906 636.531 892.244 637.852 912.948 634.238C918.64 633.274 924.578 631.713 928.508 627.877C933.083 623.415 933.878 616.853 933.824 610.791C933.534 589.965 925.147 569.872 923.279 549.114C922.473 540.219 922.871 531.276 922.516 522.353C922.237 515.641 921.538 508.949 920.422 502.308C920.068 499.266 919.138 496.3 917.673 493.538C914.452 488.141 907.761 485.212 901.426 482.937C852.2 464.993 798.055 465.167 744.963 466.93Z" fill="#F86D70"/>
<path d="M836.102 208.342C861.604 208.342 882.278 189.789 882.278 166.903C882.278 144.016 861.604 125.464 836.102 125.464C810.6 125.464 789.926 144.016 789.926 166.903C789.926 189.789 810.6 208.342 836.102 208.342Z" fill="#FBBEBE"/>
<path d="M876.351 239.893C872.925 246.639 867.534 253.385 859.512 255.1C852.135 256.69 844.317 253.5 838.883 248.749C833.45 243.998 829.895 237.831 826.126 231.923C823.377 227.606 820.316 223.25 815.666 220.532C809.309 216.832 801.105 216.928 793.609 218.017C786.114 219.106 778.672 221.053 771.058 220.609C761.576 220.041 751.911 215.791 742.966 218.624C745.865 230.266 744.823 243.064 744.491 254.994C744.547 256.836 744.256 258.674 743.631 260.429C742.851 262.066 741.797 263.587 740.506 264.939L731.916 274.875C741.129 281.062 749.097 289.138 752.319 299.054C754.134 304.702 753.575 310.696 753.511 316.574C753.307 333.834 757.484 351.026 756.163 368.248C754.617 388.418 745.64 407.48 741.011 427.264C737.047 444.249 736.299 461.711 738.799 478.919C786.93 493.866 836.521 501.517 887.401 504.023C896.389 504.466 906.097 504.534 913.474 499.898C919.606 496.043 923.042 489.442 924.213 482.793C925.383 476.143 924.578 469.378 923.762 462.69C921.55 444.605 919.341 426.519 917.136 408.434C915.88 398.142 914.623 387.791 915.439 377.47C916.051 369.761 917.813 362.196 919.563 354.65L930.302 308.335C931.837 301.753 933.384 295.122 936.423 288.984C938.914 283.972 942.361 279.347 945.11 274.47C948.387 268.624 950.647 262.361 951.811 255.9C952.278 254.025 952.248 252.077 951.725 250.214C950.576 247.053 947.065 245.155 943.789 243.603C923.817 234.184 902.412 227.446 880.259 223.606C878.756 229.283 879.046 234.602 876.351 239.893Z" fill="#E3E8F4"/>
<path d="M871.894 212.138C877.263 202.906 887.304 196.43 893.135 187.41C896.358 182.296 898.16 176.561 898.388 170.689C898.616 164.818 897.263 158.983 894.445 153.681C892.394 149.922 889.613 146.472 888.002 142.54C886.209 138.069 886.037 133.144 883.964 128.769C881.118 122.775 874.954 118.457 868.243 115.971C861.531 113.485 854.283 112.589 847.055 111.721L822.657 108.772C819.124 108.348 815.462 107.924 812.026 108.772C808.589 109.62 805.389 112.136 805.11 115.335C804.777 119.122 808.482 122.65 807.623 126.369C807.311 127.68 806.452 129.01 806.946 130.282C807.386 131.132 808.147 131.815 809.094 132.209C814.882 135.101 821.798 135.361 828.069 137.25C834.341 139.138 840.634 143.88 840 149.778C839.656 152.948 837.38 156.244 838.926 159.087C840.408 161.718 844.296 162.2 847.399 163.019C857.44 165.63 864.484 175.402 863.024 184.702C862.573 187.593 861.413 190.359 861.177 193.26C860.393 203.417 862.175 206.318 871.421 212.225L871.894 212.138Z" fill="#3F3D56"/>
<path d="M934.619 256.064C934.668 257.987 934.277 259.9 933.47 261.682C930.119 268.091 919.864 267.686 913.066 271.319C904.604 275.849 902.736 285.958 901.963 294.766C901.082 304.74 900.481 314.859 902.757 324.641C905.034 334.422 910.51 343.963 919.66 349.697C930.796 356.645 945.937 356.886 958.652 352.655C971.366 348.425 981.987 340.243 991.201 331.3C999.942 322.819 1007.77 313.365 1012.46 302.601C1013.29 300.673 1014.02 298.63 1013.35 296.703C1012.36 293.812 1008.84 292.501 1005.99 290.921C999.319 287.307 994.873 281.004 992.564 274.345C990.256 267.686 989.869 260.603 989.794 253.616C989.708 246.359 989.686 238.428 984.532 232.829C979.377 227.23 970.443 225.659 962.303 225.717C955.645 225.717 937.217 226.286 932.675 231.499C928.949 235.836 934.887 249.858 934.619 256.064Z" fill="#BE6F72"/>
<path opacity="0.1" d="M934.619 256.064C934.668 257.987 934.277 259.9 933.47 261.682C930.119 268.091 919.864 267.686 913.066 271.319C904.604 275.849 902.736 285.958 901.963 294.766C901.082 304.74 900.481 314.859 902.757 324.641C905.034 334.422 910.51 343.963 919.66 349.697C930.796 356.645 945.937 356.886 958.652 352.655C971.366 348.425 981.987 340.243 991.201 331.3C999.942 322.819 1007.77 313.365 1012.46 302.601C1013.29 300.673 1014.02 298.63 1013.35 296.703C1012.36 293.812 1008.84 292.501 1005.99 290.921C999.319 287.307 994.873 281.004 992.564 274.345C990.256 267.686 989.869 260.603 989.794 253.616C989.708 246.359 989.686 238.428 984.532 232.829C979.377 227.23 970.443 225.659 962.303 225.717C955.645 225.717 937.217 226.286 932.675 231.499C928.949 235.836 934.887 249.858 934.619 256.064Z" fill="black"/>
<path d="M877.36 514.508C877.692 515.976 878.465 517.336 879.594 518.44C880.654 519.191 881.892 519.715 883.213 519.972C918.457 529.252 956.107 525.552 992.597 521.765C987.603 508.119 982.578 494.319 981.192 480.008C980.043 468.202 981.332 455.915 976.671 444.842C975.297 441.566 895.186 456.648 887.282 457.872C883.234 458.498 878.573 458.286 875.706 461.167C872.248 464.656 871.958 472.963 871.593 477.309C870.562 489.866 873.451 502.51 877.36 514.508Z" fill="#BE6F72"/>
<path d="M957.61 667.485C951.167 670.164 944.519 672.66 937.636 674.896C933.913 676.11 930.112 677.247 926.232 678.307C919.874 680.042 913.345 681.555 906.526 682.798C902.639 673.951 898.748 665.102 894.853 656.248C891.986 649.734 889.119 643.19 886.724 636.531C885.058 631.984 883.689 627.354 882.622 622.664C879.106 606.722 880.021 590.249 885.285 574.7C900.169 577.216 914.72 578.854 929.378 580.762C937.206 581.726 945.056 582.863 953.003 584.203C953.626 588.848 954.191 593.493 954.7 598.138C955.473 605.307 956.106 612.477 956.6 619.647C957.696 635.58 958.032 651.526 957.61 667.485Z" fill="#BE6F72"/>
<path opacity="0.1" d="M957.61 667.485C951.167 670.164 944.519 672.66 937.636 674.896C933.913 676.11 930.112 677.247 926.232 678.307C919.874 680.042 913.345 681.555 906.526 682.798C902.639 673.951 898.748 665.102 894.853 656.248C891.986 649.734 889.119 643.19 886.724 636.531C885.058 631.984 883.689 627.354 882.622 622.664C879.106 606.722 880.021 590.249 885.285 574.7C900.169 577.216 914.72 578.854 929.378 580.762C937.206 581.726 945.056 582.863 953.003 584.203C953.626 588.848 954.191 593.493 954.7 598.138C955.473 605.307 956.106 612.477 956.6 619.647C957.696 635.58 958.032 651.526 957.61 667.485Z" fill="black"/>
<path d="M1040.19 625.728C1040.28 631.279 1038.52 636.946 1036.88 642.391C1036.76 642.776 1036.66 643.152 1036.55 643.537C1032.67 642.452 1029.32 640.199 1027.07 637.158C1025.91 635.509 1025.05 633.703 1024.52 631.809C1019.66 634.777 1014.76 637.717 1009.81 640.627C993.628 650.168 976.521 659.641 957.61 667.485C951.167 670.164 944.52 672.66 937.636 674.896C936.204 670.399 934.844 665.873 933.555 661.318C932.147 656.628 931.043 651.869 930.248 647.064C928.675 636.152 929.894 625.062 933.813 614.636L934.296 613.383C936.121 608.747 938.478 604.293 941.33 600.094C944.004 596.239 949.298 596.885 954.7 598.167C957.148 598.735 959.629 599.419 961.884 599.843C975.919 602.484 990.492 599.757 1004.84 600.479C1011.68 600.786 1018.38 602.316 1024.54 604.98C1031.45 608.093 1037.01 612.853 1039.19 619.435C1039.5 620.383 1039.74 621.349 1039.9 622.326C1040.08 623.453 1040.18 624.59 1040.19 625.728Z" fill="#BE6F72"/>
<path d="M781.839 181.898C759.664 162.624 734.46 146.289 708.677 131.015C701.968 127.239 695.513 123.11 689.347 118.65C682.904 113.832 677.288 108.175 670.447 103.838C663.607 99.5017 655.144 96.5239 646.929 97.9502C638.714 99.3765 631.412 106.431 632.615 113.813C633.689 120.308 640.196 124.76 646.21 128.49C657.593 135.554 669.03 142.637 681.411 148.178C685.713 149.928 689.884 151.924 693.9 154.153C701.611 158.817 707.227 165.717 713.058 172.203C735.067 196.736 762.025 217.332 792.524 232.916C792.889 233.109 805.593 208.505 805.056 205.316C803.875 197.982 787.681 186.986 781.839 181.898Z" fill="#BE6F72"/>
<path d="M971.506 493.326C954.389 494.29 937.969 499.474 921.228 502.78C904.486 506.085 886.295 507.367 870.756 500.852L880.206 558.761C880.732 561.98 881.28 565.275 880.496 568.446C879.776 571.472 877.908 574.324 878.069 577.418C878.316 582.313 883.438 585.754 888.26 588.019C902.267 594.655 917.961 597.9 933.792 597.434C932.621 601.674 931.161 605.866 929.98 610.107C937.872 617.71 950.78 618.221 962.045 620.63C970.636 622.451 978.69 625.612 987.109 627.838C997.29 630.535 1007.86 631.857 1018.48 631.761C1025.64 631.693 1033.23 630.797 1038.79 626.788C1045.64 621.844 1047.76 613.441 1049.24 605.673C1050.07 601.337 1050.83 596.942 1050.32 592.567C1049.76 587.537 1047.59 582.776 1045.44 578.112L1030.73 546.069C1028.06 540.287 1025.36 534.418 1022.14 528.838C1011.61 510.788 994.154 492.063 971.506 493.326Z" fill="#3F3D56"/>
<path d="M984.607 293.243C985.878 290.245 988.225 287.712 991.278 286.042C994.33 284.372 997.914 283.661 1001.47 284.021C1005.76 284.56 1009.6 286.671 1013.28 288.733L1033.79 300.22C1037.19 302.035 1040.45 304.051 1043.55 306.253C1057.69 316.777 1063.15 334.075 1064.71 350.506C1066.26 366.937 1064.71 383.648 1068.35 399.809C1059.69 406.246 1050.09 411.691 1041.44 418.119C1036.9 421.482 1032.32 424.865 1028.88 429.192C1026.15 432.594 1024.21 436.487 1021.37 439.793C1016.71 445.017 1009.94 448.388 1002.54 449.179C1007.23 451.627 1009.86 456.378 1011.13 461.11C1012.4 465.841 1012.74 470.747 1014.15 475.478C1016.08 481.906 1020.09 487.775 1021.41 494.328C1022.33 498.848 1021.92 503.483 1022.26 508.071C1023.93 531.806 1044.69 552.555 1043.35 576.3C1033.55 573.105 1024.28 568.731 1015.79 563.3C1011.97 560.843 1008.27 558.183 1004.66 555.533L977.305 535.632C963.999 525.995 950.565 516.146 939.988 504.042C933.351 496.448 927.939 488.045 921.281 480.47C914.623 472.896 906.429 466.015 896.26 462.835C894.767 464.849 892.115 466.246 890.622 468.26C890.359 468.578 890.149 468.928 889.999 469.301C889.818 470.199 889.941 471.126 890.354 471.961C891.553 475.859 892.273 479.862 892.501 483.901L893.178 491.148C893.43 493.069 893.43 495.009 893.178 496.93C892.158 503.127 885.757 507.936 878.853 508.899C877.854 509.093 876.818 509.063 875.835 508.813C873.913 508.234 872.85 506.413 872.27 504.678C869.553 496.448 873.719 487.765 874.052 479.198C874.099 477.024 874.017 474.85 873.805 472.684L873.161 464.136C866.922 462.97 863.335 456.956 861.681 451.434C857.214 436.526 852.715 421.097 855.303 405.832C855.99 401.746 857.193 397.602 856.377 393.516C855.303 388.052 850.921 383.619 848.612 378.473C841.095 361.695 857.064 343.481 855.582 325.469C854.959 317.904 849.611 311.332 846.39 304.316C844.722 300.227 842.562 296.314 839.946 292.646C836.66 288.434 832.225 285.061 827.919 281.669C814.62 271.198 802.006 260.045 790.14 248.268C784.047 247.7 778.33 245.35 773.871 241.579C771.036 239.17 768.706 235.99 768.631 232.492C768.556 228.994 771.434 225.322 775.332 225.139C777.608 225.033 779.735 226.045 781.958 226.488C788.916 227.856 795.918 223.26 799.021 217.487C802.125 211.714 802.125 205.075 802.071 198.676C805.472 198.134 808.971 198.388 812.23 199.412C815.49 200.437 818.4 202.198 820.681 204.525C825.481 209.209 828.606 215.049 832.386 220.426C833.925 222.815 835.9 224.956 838.228 226.758C843.393 230.439 850.835 231.133 855.346 235.431C857.633 237.628 858.9 240.539 860.994 242.89C866.879 249.511 877.65 250.32 885.693 254.676C893.736 259.032 899.331 266.992 908.244 269.575C911.466 270.539 914.977 270.664 918.167 271.734C925.533 274.191 930.033 281.216 931.053 288.203C932.073 295.19 930.334 302.254 928.573 309.135L924.438 325.238C923.525 328.804 922.827 333.092 925.759 335.636C927.144 336.665 928.77 337.399 930.516 337.785C938.033 339.983 946.409 342.141 953.475 339.028C956.815 337.544 959.435 335.039 961.83 332.475C972.311 321.393 979.281 306.88 984.607 293.243Z" fill="#EC7000"/>
<path d="M1069.37 620.948C1067.89 629.766 1062.47 638.439 1053.61 642.477C1048.3 644.828 1042.17 645.209 1036.55 643.537C1032.67 642.452 1029.32 640.199 1027.07 637.158C1025.91 635.508 1025.05 633.703 1024.52 631.809C1024.52 631.713 1024.47 631.607 1024.45 631.51C1023.64 628.101 1023.31 624.615 1023.45 621.131C1023.45 615.723 1023.81 610.32 1024.52 604.951C1025.12 600.43 1026.11 595.958 1027.49 591.575C1029.48 585.32 1032.36 579.297 1035 573.264C1036.38 570.084 1037.7 566.894 1038.78 563.628C1039.44 561.7 1040 559.715 1040.45 557.71L1040.61 556.988C1040.7 556.583 1040.77 556.178 1040.85 555.773C1041.92 550.28 1042.23 544.595 1044.99 539.632C1051.43 527.98 1063.98 530.958 1065.89 541.703C1066.03 542.536 1066.12 543.376 1066.14 544.219C1066.43 557.816 1060.41 571.106 1063.16 584.752C1063.94 588.08 1064.91 591.367 1066.08 594.601C1067.05 597.579 1067.92 600.595 1068.58 603.65C1069.93 609.335 1070.2 615.184 1069.37 620.948Z" fill="#BE6F72"/>
<path d="M1075.27 469.744C1075.56 475.315 1075.27 480.952 1076.52 486.416C1079.43 499.33 1090.48 510.759 1089.26 523.885C1088.95 527.084 1087.63 530.525 1084.52 532.105C1081.41 533.686 1076.25 533.56 1075.23 536.741C1074.94 537.627 1075.09 538.591 1074.77 539.468C1074.09 541.337 1071.55 542.137 1069.4 542.089C1067.25 542.041 1065.1 541.405 1062.88 541.569C1055.1 542.157 1052.24 551.504 1045.3 554.713C1040.63 556.872 1034.56 555.677 1030.71 552.487C1026.85 549.298 1025.17 544.325 1025.47 539.612C1025.69 536.056 1026.95 532.626 1027.62 529.118C1028.83 522.863 1028.2 516.455 1027.56 510.133C1026.63 500.872 1025.66 491.495 1022.27 482.716C1020.67 478.572 1018.54 474.611 1017.16 470.409C1015.18 464.463 1014.73 458.209 1014.53 452.012C1014.11 438.974 1015.1 425.029 1023.78 414.544C1030.3 406.68 1039.64 400.291 1047.02 393.015C1051.64 388.457 1052.97 387.03 1058.07 390.895C1062.27 394.065 1066.66 398.44 1067.13 402.739C1068.42 413.754 1067.13 424.586 1069.43 435.803C1071.73 447.02 1074.67 458.228 1075.27 469.744Z" fill="#EC7000"/>
<path d="M963.892 257.49C994.14 257.49 1018.66 235.486 1018.66 208.342C1018.66 181.198 994.14 159.193 963.892 159.193C933.645 159.193 909.125 181.198 909.125 208.342C909.125 235.486 933.645 257.49 963.892 257.49Z" fill="#BE6F72"/>
<path d="M1014.04 302.36C1015.24 300.847 1016.67 299.218 1018.71 298.9C1020.25 298.796 1021.8 299.087 1023.16 299.738L1037.58 305.145C1041.48 299.369 1043.78 292.839 1044.28 286.102C1044.58 281.968 1044.22 277.776 1045.1 273.709C1046.41 267.676 1050.39 262.27 1051.32 256.179C1052.05 251.265 1050.73 246.321 1049.93 241.416C1047.48 226.266 1050.11 210.809 1048.71 195.553C1047.3 180.298 1040.48 163.954 1025.32 156.948C1021.02 155.02 1016.39 153.864 1011.93 152.341C1001.97 148.939 993.048 143.494 983.211 139.813C973.374 136.132 961.82 134.445 952.284 138.676C942.748 142.906 937.196 154.808 943.392 162.575C945.432 165.129 948.418 166.941 951.274 168.782C957.084 172.511 963.012 177.118 964.354 183.42C966.759 194.763 953.615 203.658 949.91 214.75C948.543 219.082 948.421 223.654 949.556 228.039C951.156 234.612 955.065 240.818 954.925 247.545C954.818 254.917 949.9 261.595 948.976 268.929C948.643 271.618 948.847 274.345 948.471 277.024C947.81 280.558 946.644 284.001 945.003 287.268C936.412 306.542 927.703 326.018 914.935 343.346C928.604 343.554 942.119 340.72 954.27 335.096C952.524 342.525 949.179 349.576 944.423 355.855C955.349 354.72 965.859 351.429 975.2 346.218C972.933 353.501 969.65 360.498 965.428 367.043C965.793 366.484 972.548 365.116 973.793 364.48C976.354 363.173 978.413 361.201 979.699 358.823C983.351 352.963 985.627 345.9 989.01 339.809C996.242 326.754 1004.61 314.232 1014.04 302.36Z" fill="#3F3D56"/>
<path d="M598.691 7.4205C596.091 7.65565 593.473 7.71042 590.863 7.58433C590.418 7.54069 589.972 7.65562 589.62 7.90436C589.269 8.15309 589.04 8.51574 588.984 8.91423L583.99 42.528C583.606 44.968 582.493 47.2692 580.769 49.1871C579.347 50.7134 578.29 52.4856 577.664 54.3938C577.038 56.3019 576.856 58.3052 577.128 60.2792V117.378C577.128 117.378 576.806 124.991 583.324 124.991C591.126 125.871 599.019 125.871 606.821 124.991C606.821 124.991 612.04 124.105 612.04 117.08V60.8575C612.438 58.8959 612.356 56.8802 611.8 54.9499C611.243 53.0196 610.226 51.221 608.818 49.6786C607.152 47.7537 606.074 45.4715 605.693 43.058L600.506 8.74076C600.447 8.35493 600.227 8.00372 599.89 7.75848C599.553 7.51325 599.124 7.3924 598.691 7.4205Z" fill="#3F3D56"/>
<path d="M598.724 61.3008H590.81C584.256 61.3008 578.943 66.0684 578.943 71.9496V98.6729C578.943 104.554 584.256 109.322 590.81 109.322H598.724C605.277 109.322 610.59 104.554 610.59 98.6729V71.9496C610.59 66.0684 605.277 61.3008 598.724 61.3008Z" fill="#EC7000"/>
<path d="M672.789 56.5689C670.188 56.8041 667.57 56.8589 664.96 56.7328C664.515 56.6891 664.069 56.8041 663.717 57.0528C663.366 57.3015 663.137 57.6642 663.081 58.0627L658.087 91.6764C657.703 94.1165 656.59 96.4176 654.866 98.3356C653.444 99.8619 652.388 101.634 651.761 103.542C651.135 105.45 650.953 107.454 651.225 109.428V166.527C651.225 166.527 650.903 174.14 657.422 174.14C665.223 175.02 673.116 175.02 680.918 174.14C680.918 174.14 686.137 173.253 686.137 166.228V110.006C686.535 108.044 686.453 106.029 685.897 104.098C685.34 102.168 684.323 100.369 682.915 98.827C681.249 96.9021 680.171 94.6199 679.79 92.2064L674.603 57.8892C674.544 57.5034 674.324 57.1522 673.987 56.9069C673.65 56.6617 673.221 56.5408 672.789 56.5689Z" fill="#3F3D56"/>
<path d="M672.821 110.449H664.906C658.353 110.449 653.04 115.217 653.04 121.098V147.821C653.04 153.703 658.353 158.47 664.906 158.47H672.821C679.374 158.47 684.687 153.703 684.687 147.821V121.098C684.687 115.217 679.374 110.449 672.821 110.449Z" fill="#EC7000"/>
<g opacity="0.2">
<path opacity="0.2" d="M589.499 632.407C589.465 633.446 589.332 634.481 589.102 635.5C581.628 634.434 574.111 633.47 566.551 632.609C566.551 632.339 566.551 632.06 566.551 631.78C566.621 628.89 567.547 626.07 569.235 623.608C571.448 620.466 574.809 618.5 578.514 618.606C582.218 618.712 585.429 620.861 587.416 624.109C588.919 626.66 589.638 629.524 589.499 632.407Z" fill="#3F3D56"/>
<path opacity="0.2" d="M590.102 615.95C590.364 608.497 585.435 602.31 579.092 602.13C572.749 601.95 567.395 607.846 567.132 615.299C566.87 622.752 571.799 628.939 578.142 629.119C584.485 629.299 589.839 623.403 590.102 615.95Z" fill="#3F3D56"/>
<path opacity="0.2" d="M590.688 599.451C590.95 591.998 586.021 585.811 579.678 585.631C573.335 585.451 567.981 591.347 567.718 598.8C567.456 606.253 572.385 612.44 578.728 612.62C585.071 612.8 590.425 606.904 590.688 599.451Z" fill="#3F3D56"/>
<path opacity="0.2" d="M591.262 582.952C591.525 575.5 586.596 569.312 580.253 569.132C573.91 568.952 568.556 574.848 568.293 582.301C568.031 589.754 572.96 595.941 579.303 596.121C585.645 596.301 591 590.405 591.262 582.952Z" fill="#3F3D56"/>
<path opacity="0.2" d="M591.849 566.453C592.111 559.001 587.182 552.813 580.839 552.633C574.496 552.453 569.142 558.349 568.879 565.802C568.617 573.255 573.546 579.442 579.889 579.622C586.232 579.802 591.586 573.906 591.849 566.453Z" fill="#3F3D56"/>
<path opacity="0.2" d="M541.282 451.964C539.77 450.127 538.406 448.194 537.202 446.182L567.549 442.587L534.882 441.884C531.967 435.679 530.493 429.005 530.55 422.271C530.607 415.537 532.195 408.884 535.215 402.719L578.299 424.354L538.834 396.561C542.815 390.783 548.081 385.803 554.303 381.933C560.525 378.063 567.57 375.386 574.997 374.069C582.423 372.752 590.073 372.823 597.468 374.278C604.862 375.733 611.843 378.541 617.975 382.526C624.106 386.511 629.255 391.588 633.102 397.44C636.949 403.291 639.409 409.791 640.331 416.535C641.252 423.278 640.614 430.119 638.457 436.631C636.3 443.143 632.67 449.186 627.793 454.383C630.145 457.241 632.144 460.321 633.753 463.567L593.923 480.721L636.159 469.32C638.818 477.196 639.247 485.543 637.406 493.605C635.564 501.667 631.511 509.189 625.613 515.491C631.745 522.957 635.412 531.821 636.195 541.069C636.977 550.317 634.844 559.577 630.038 567.788C625.233 575.999 617.95 582.832 609.021 587.503C600.093 592.175 589.879 594.497 579.549 594.205C569.219 593.913 559.189 591.017 550.606 585.85C542.024 580.683 535.234 573.453 531.015 564.986C526.796 556.52 525.316 547.158 526.747 537.972C528.177 528.787 532.459 520.148 539.102 513.043C531.777 504.121 528.006 493.247 528.395 482.17C528.785 471.093 533.312 460.454 541.25 451.964H541.282Z" fill="#EC7000"/>
<path opacity="0.1" d="M638.5 485.289C638.124 496.372 633.582 507.016 625.613 515.491C631.745 522.957 635.412 531.821 636.195 541.069C636.977 550.317 634.844 559.577 630.038 567.788C625.233 576 617.95 582.832 609.021 587.503C600.093 592.175 589.879 594.497 579.549 594.205C569.219 593.913 559.189 591.017 550.606 585.85C542.024 580.683 535.234 573.453 531.015 564.986C526.796 556.52 525.316 547.158 526.747 537.972C528.177 528.787 532.459 520.148 539.102 513.043C532.047 504.437 638.693 479.747 638.5 485.289Z" fill="black"/>
</g>
</g>
<defs>
<clipPath id="clip0">
<rect width="1219" height="687" fill="white"/>
</clipPath>
</defs>
</svg>
