<svg width="659" height="616" viewBox="0 0 659 616" fill="none" xmlns="http://www.w3.org/2000/svg">
<g clip-path="url(#clip0)">
<path d="M566.342 508.98C555.223 543.24 540.923 577.425 522.604 609.962C522.197 610.695 521.786 611.413 521.372 612.143L476.019 597.05C476.279 596.359 476.565 595.586 476.872 594.743C495.165 544.979 605.529 241.779 600.576 181.999C601.109 186.892 618.374 348.83 566.342 508.98Z" fill="#E6E6E6"/>
<path d="M531.353 612.874C530.737 613.537 530.105 614.195 529.468 614.838L495.445 603.515C495.905 602.93 496.44 602.24 497.056 601.46C507.133 588.516 537.09 549.759 566.342 508.98C597.778 465.158 628.407 419.007 632.699 400.044C631.837 404.356 604.991 535.627 531.353 612.874Z" fill="#E6E6E6"/>
<path d="M548.36 108.033C548.347 108.033 548.335 108.037 548.323 108.037V31.318C548.323 23.012 545.186 15.0461 539.603 9.17283C534.019 3.29957 526.447 0 518.551 0H290.22C282.324 0 274.751 3.29957 269.168 9.17283C263.585 15.0461 260.448 23.012 260.448 31.318V70.6484C259.818 70.6625 259.218 70.9357 258.776 71.4095C258.335 71.8833 258.088 72.52 258.087 73.1832V92.6639C258.088 93.3272 258.335 93.9638 258.776 94.4375C259.218 94.9113 259.818 95.1844 260.448 95.1983V115.606H260.327C260.01 115.606 259.696 115.672 259.403 115.8C259.11 115.927 258.844 116.114 258.619 116.35C258.395 116.586 258.217 116.866 258.096 117.174C257.975 117.483 257.912 117.813 257.912 118.147V155.818C257.912 156.151 257.975 156.482 258.096 156.79C258.217 157.098 258.395 157.378 258.619 157.614C258.844 157.85 259.11 158.037 259.403 158.165C259.696 158.292 260.01 158.358 260.327 158.358H260.448V173.32H260.41C260.093 173.32 259.779 173.385 259.486 173.513C259.193 173.641 258.927 173.828 258.703 174.064C258.479 174.3 258.301 174.58 258.179 174.888C258.058 175.196 257.995 175.526 257.996 175.86V213.899C257.995 214.233 258.058 214.563 258.179 214.872C258.301 215.18 258.479 215.46 258.703 215.696C258.927 215.932 259.193 216.119 259.486 216.246C259.779 216.374 260.093 216.44 260.41 216.44H260.448V584.136C260.448 592.442 263.585 600.408 269.168 606.281C274.751 612.155 282.324 615.454 290.22 615.454H518.551C526.447 615.454 534.019 612.155 539.603 606.281C545.186 600.408 548.323 592.442 548.323 584.136V182.635C548.335 182.635 548.347 182.638 548.36 182.638C548.925 182.638 549.484 182.521 550.006 182.294C550.527 182.067 551.001 181.734 551.401 181.314C551.8 180.894 552.117 180.395 552.333 179.846C552.549 179.297 552.66 178.709 552.66 178.115V112.557C552.66 111.357 552.207 110.206 551.401 109.358C550.594 108.51 549.501 108.033 548.36 108.033Z" fill="#3F3D56"/>
<path d="M530.547 40.0846V575.361C530.544 581.739 528.134 587.854 523.847 592.363C519.559 596.872 513.744 599.405 507.682 599.405H301.089C295.027 599.405 289.212 596.872 284.925 592.363C280.637 587.854 278.227 581.739 278.225 575.361V40.0846C278.225 33.7055 280.634 27.5877 284.922 23.077C289.21 18.5663 295.025 16.0322 301.089 16.0322H332.004V20.253C332.006 25.505 333.991 30.5412 337.521 34.2549C341.051 37.9686 345.839 40.0559 350.831 40.0583H455.938C460.924 40.0466 465.702 37.9549 469.224 34.2419C472.746 30.529 474.723 25.4981 474.723 20.253V16.0761H507.682C513.739 16.0761 519.548 18.6041 523.835 23.1054C528.122 27.6066 530.535 33.7131 530.547 40.0846Z" fill="white"/>
<path d="M195.54 300.353C194.319 299.856 193.008 299.646 191.701 299.739C190.394 299.832 189.122 300.225 187.975 300.89C186.828 301.556 185.834 302.479 185.062 303.592C184.291 304.706 183.76 305.984 183.509 307.337L109.89 349.446L122.834 364.771L191.203 318.615C193.391 318.909 195.605 318.347 197.426 317.038C199.247 315.729 200.548 313.762 201.083 311.511C201.617 309.26 201.348 306.881 200.327 304.824C199.305 302.768 197.602 301.177 195.54 300.353H195.54Z" fill="#FFB8B8"/>
<path d="M176.765 603.328L185.938 597.086L167.417 556.894L153.877 566.106L176.765 603.328Z" fill="#FFB8B8"/>
<path d="M209.14 594.009L180.309 613.626L173.103 601.908L191.212 589.587C194.056 587.652 197.514 586.984 200.826 587.732C204.137 588.479 207.031 590.579 208.871 593.571L209.14 594.009L209.14 594.009Z" fill="#2F2E41"/>
<path d="M73.834 604.78H84.7592L89.9586 560.45H73.834V604.78Z" fill="#FFB8B8"/>
<path d="M105.83 615.452H71.493V601.496H93.0595C94.7366 601.496 96.3972 601.844 97.9466 602.519C99.496 603.194 100.904 604.183 102.09 605.431C103.276 606.678 104.216 608.159 104.858 609.789C105.5 611.419 105.83 613.166 105.83 614.93V615.452Z" fill="#2F2E41"/>
<path d="M324.495 86.866H301.972C301.419 86.866 300.889 86.6349 300.498 86.2235C300.106 85.8121 299.887 85.2541 299.887 84.6723C299.887 84.0905 300.106 83.5325 300.498 83.121C300.889 82.7096 301.419 82.4785 301.972 82.4785H324.495C325.048 82.4785 325.578 82.7096 325.97 83.121C326.361 83.5325 326.58 84.0905 326.58 84.6723C326.58 85.2541 326.361 85.8121 325.97 86.2235C325.578 86.6349 325.048 86.866 324.495 86.866Z" fill="#3F3D56"/>
<path d="M324.495 93.0086H301.972C301.419 93.0086 300.889 92.7775 300.498 92.3661C300.106 91.9547 299.887 91.3967 299.887 90.8148C299.887 90.233 300.106 89.675 300.498 89.2636C300.889 88.8522 301.419 88.6211 301.972 88.6211H324.495C325.048 88.6211 325.578 88.8522 325.97 89.2636C326.361 89.675 326.58 90.233 326.58 90.8148C326.58 91.3967 326.361 91.9547 325.97 92.3661C325.578 92.7775 325.048 93.0086 324.495 93.0086Z" fill="#3F3D56"/>
<path d="M324.495 99.1512H301.972C301.419 99.1512 300.889 98.92 300.498 98.5086C300.106 98.0972 299.887 97.5392 299.887 96.9574C299.887 96.3756 300.106 95.8176 300.498 95.4062C300.889 94.9948 301.419 94.7637 301.972 94.7637H324.495C325.048 94.7637 325.578 94.9948 325.97 95.4062C326.361 95.8176 326.58 96.3756 326.58 96.9574C326.58 97.5392 326.361 98.0972 325.97 98.5086C325.578 98.92 325.048 99.1512 324.495 99.1512Z" fill="#3F3D56"/>
<path d="M499.081 93.0521H498.322L498.03 92.7976C498.989 91.5952 499.515 90.076 499.515 88.5066C499.508 87.2154 499.138 85.9553 498.45 84.8855C497.763 83.8158 496.789 82.9845 495.653 82.4968C494.516 82.0091 493.268 81.8869 492.065 82.1456C490.863 82.4043 489.76 83.0323 488.897 83.9503C488.033 84.8682 487.448 86.0348 487.215 87.3026C486.982 88.5703 487.112 89.8823 487.588 91.0726C488.064 92.2628 488.864 93.2779 489.889 93.9895C490.913 94.7011 492.115 95.0773 493.342 95.0703C494.83 95.0592 496.268 94.5074 497.413 93.5084L497.696 93.7628V94.5702L502.485 99.6158L503.919 98.1065L499.081 93.0521ZM493.342 93.0521C492.487 93.0556 491.651 92.7924 490.939 92.2958C490.226 91.7992 489.67 91.0916 489.34 90.2623C489.01 89.4331 488.921 88.5195 489.084 87.6371C489.248 86.7547 489.656 85.9431 490.258 85.305C490.86 84.6668 491.628 84.2308 492.466 84.052C493.304 83.8732 494.173 83.9597 494.963 84.3005C495.754 84.6413 496.431 85.2212 496.909 85.9667C497.386 86.7123 497.643 87.5901 497.646 88.4891L497.646 88.5066C497.65 89.1001 497.542 89.6884 497.329 90.238C497.116 90.7876 496.802 91.2877 496.406 91.7098C496.009 92.1319 495.538 92.4676 495.018 92.6979C494.498 92.9282 493.94 93.0486 493.375 93.052C493.364 93.0521 493.353 93.0521 493.342 93.0521H493.342Z" fill="#3F3D56"/>
<path d="M370.379 167.596H329.917C327.484 167.596 325.15 166.579 323.429 164.769C321.708 162.959 320.741 160.504 320.741 157.944C320.741 155.384 321.708 152.928 323.429 151.118C325.15 149.308 327.484 148.291 329.917 148.291H370.379C372.813 148.291 375.147 149.308 376.868 151.118C378.588 152.928 379.555 155.384 379.555 157.944C379.555 160.504 378.588 162.959 376.868 164.769C375.147 166.579 372.813 167.596 370.379 167.596Z" fill="#EC7000"/>
<path d="M494.25 188.656H325.746C324.419 188.656 323.146 188.101 322.207 187.114C321.269 186.127 320.741 184.787 320.741 183.391C320.741 181.995 321.269 180.655 322.207 179.668C323.146 178.681 324.419 178.126 325.746 178.126H494.25C495.578 178.126 496.851 178.681 497.789 179.668C498.728 180.655 499.255 181.995 499.255 183.391C499.255 184.787 498.728 186.127 497.789 187.114C496.851 188.101 495.578 188.656 494.25 188.656Z" fill="#E6E6E6"/>
<path d="M387.642 209.716H325.746C324.419 209.716 323.146 209.161 322.207 208.174C321.269 207.187 320.741 205.847 320.741 204.451C320.741 203.055 321.269 201.716 322.207 200.728C323.146 199.741 324.419 199.186 325.746 199.186H387.642C388.97 199.186 390.243 199.741 391.182 200.728C392.12 201.716 392.647 203.055 392.647 204.451C392.647 205.847 392.12 207.187 391.182 208.174C390.243 209.161 388.97 209.716 387.642 209.716Z" fill="#E6E6E6"/>
<path d="M370.379 401.012H329.917C327.484 401.012 325.15 399.995 323.429 398.185C321.708 396.375 320.741 393.92 320.741 391.36C320.741 388.8 321.708 386.344 323.429 384.534C325.15 382.724 327.484 381.707 329.917 381.707H370.379C372.813 381.707 375.147 382.724 376.868 384.534C378.588 386.344 379.555 388.8 379.555 391.36C379.555 393.92 378.588 396.375 376.868 398.185C375.147 399.995 372.813 401.012 370.379 401.012Z" fill="#EC7000"/>
<path d="M494.25 422.072H325.746C324.419 422.072 323.146 421.517 322.207 420.53C321.269 419.543 320.741 418.203 320.741 416.807C320.741 415.411 321.269 414.071 322.207 413.084C323.146 412.097 324.419 411.542 325.746 411.542H494.25C495.578 411.542 496.851 412.097 497.789 413.084C498.728 414.071 499.255 415.411 499.255 416.807C499.255 418.203 498.728 419.543 497.789 420.53C496.851 421.517 495.578 422.072 494.25 422.072Z" fill="#E6E6E6"/>
<path d="M387.642 443.132H325.746C324.419 443.132 323.146 442.577 322.207 441.59C321.269 440.603 320.741 439.263 320.741 437.867C320.741 436.471 321.269 435.132 322.207 434.144C323.146 433.157 324.419 432.602 325.746 432.602H387.642C388.97 432.602 390.243 433.157 391.182 434.144C392.12 435.132 392.647 436.471 392.647 437.867C392.647 439.263 392.12 440.603 391.182 441.59C390.243 442.577 388.97 443.132 387.642 443.132Z" fill="#E6E6E6"/>
<path d="M370.379 508.945H329.917C327.484 508.945 325.15 507.928 323.429 506.118C321.708 504.307 320.741 501.852 320.741 499.292C320.741 496.732 321.708 494.277 323.429 492.467C325.15 490.657 327.484 489.64 329.917 489.64H370.379C372.813 489.64 375.147 490.657 376.868 492.467C378.588 494.277 379.555 496.732 379.555 499.292C379.555 501.852 378.588 504.307 376.868 506.118C375.147 507.928 372.813 508.945 370.379 508.945Z" fill="#EC7000"/>
<path d="M494.25 530.005H325.746C324.419 530.005 323.146 529.45 322.207 528.463C321.269 527.475 320.741 526.136 320.741 524.74C320.741 523.343 321.269 522.004 322.207 521.017C323.146 520.029 324.419 519.475 325.746 519.475H494.25C495.578 519.475 496.851 520.029 497.789 521.017C498.728 522.004 499.255 523.343 499.255 524.74C499.255 526.136 498.728 527.475 497.789 528.463C496.851 529.45 495.578 530.005 494.25 530.005Z" fill="#E6E6E6"/>
<path d="M387.642 551.065H325.746C324.419 551.065 323.146 550.51 322.207 549.523C321.269 548.535 320.741 547.196 320.741 545.8C320.741 544.403 321.269 543.064 322.207 542.077C323.146 541.089 324.419 540.535 325.746 540.535H387.642C388.97 540.535 390.243 541.089 391.182 542.077C392.12 543.064 392.647 544.403 392.647 545.8C392.647 547.196 392.12 548.535 391.182 549.523C390.243 550.51 388.97 551.065 387.642 551.065Z" fill="#E6E6E6"/>
<path d="M518.024 346.168H196.031C194.152 346.166 192.349 345.379 191.02 343.981C189.691 342.583 188.943 340.687 188.941 338.709V246.572C188.943 244.594 189.691 242.698 191.02 241.3C192.349 239.902 194.152 239.115 196.031 239.113H518.024C519.904 239.115 521.706 239.902 523.035 241.3C524.364 242.698 525.112 244.594 525.114 246.572V338.709C525.112 340.687 524.364 342.583 523.035 343.981C521.706 345.379 519.904 346.166 518.024 346.168Z" fill="#EC7000"/>
<path d="M80.274 455.785C83.3521 478.504 67.0523 579.154 68.8625 579.145L92.2695 579.013C93.1037 577.328 103.848 523.02 107.218 514.306C111.923 502.214 116.669 489.973 118.521 477.056C120.264 464.929 119.405 452.574 118.271 440.368C118.323 440.005 118.293 439.633 118.183 439.285C118.072 438.937 117.885 438.621 117.636 438.364C117.386 438.106 117.082 437.915 116.749 437.806C116.416 437.697 116.062 437.672 115.718 437.735L84.3114 436.033C77.8382 435.682 76.3033 434.19 77.2876 440.877C77.9717 445.87 79.59 450.731 80.274 455.785Z" fill="#2F2E41"/>
<path d="M86.4473 400.547C80.0658 410.199 73.3757 421.308 75.4945 432.865C77.1045 441.64 83.4609 448.441 89.4586 454.803C113.433 480.127 160.706 591.869 160.706 591.869C183.519 576.512 160.162 592.307 183.312 576.074C181.26 575.907 134.638 399.608 130.775 399.371C115.151 398.283 101.671 396.677 86.4473 400.547Z" fill="#2F2E41"/>
<path d="M111.688 308.673C108.447 305.632 85.6682 296.255 85.6682 296.255C85.2494 296.196 84.8244 296.21 84.4097 296.295C83.1134 296.639 82.5219 298.333 82.7988 299.704C83.0757 301.074 80.804 323.593 80.2188 333.833C79.1931 351.706 89.1984 392.19 89.1103 393.428C88.7675 397.843 86.9298 401.982 83.9315 405.092C84.7107 406.109 134.203 408.15 137.57 409.355C138.249 408.448 133.737 344.233 133.53 340.605C133.184 335.098 115.967 312.843 111.688 308.673Z" fill="#E6E6E6"/>
<path d="M76.3881 448.009C77.5609 447.395 78.5916 446.518 79.4074 445.44C80.2232 444.362 80.8043 443.108 81.1098 441.768C81.4154 440.428 81.4378 439.034 81.1757 437.684C80.9135 436.333 80.3732 435.06 79.5926 433.953L100.475 312.384L80.9881 312.114L66.4868 432.33C64.8061 433.833 63.7079 435.932 63.4002 438.229C63.0924 440.527 63.5965 442.863 64.817 444.796C66.0375 446.729 67.8895 448.123 70.0221 448.715C72.1547 449.308 74.4198 449.056 76.3881 448.009H76.3881Z" fill="#FFB8B8"/>
<path d="M76.2203 321.405C75.4076 321.467 74.5982 321.245 73.918 320.773C72.7585 319.729 82.218 303.75 84.0866 303.513C90.1677 302.776 96.4241 302.53 102.322 304.258C108.219 305.987 113.767 309.918 116.403 315.736C117.504 318.158 109.521 330.347 105.892 328.557C101.546 326.415 81.9427 321.554 76.2203 321.405Z" fill="#E6E6E6"/>
<path d="M97.6837 294.945C109.772 294.945 119.572 284.637 119.572 271.921C119.572 259.204 109.772 248.896 97.6837 248.896C85.5954 248.896 75.7959 259.204 75.7959 271.921C75.7959 284.637 85.5954 294.945 97.6837 294.945Z" fill="#FFB8B8"/>
<path d="M76.1853 309.99C79.2269 310.325 82.2997 309.852 85.1227 308.614C87.9457 307.377 90.4286 305.415 92.3444 302.907C94.2602 300.4 95.5476 297.427 96.0889 294.261C96.6301 291.094 96.408 287.836 95.4428 284.783C94.5717 282.028 93.1157 279.503 92.3181 276.724C91.5204 273.945 91.4986 270.659 93.2679 268.431C96.7294 264.071 103.401 266.813 108.738 265.947C114.424 265.023 118.787 259.284 119.242 253.251C119.697 247.217 116.707 241.247 112.257 237.41C107.806 233.574 102.067 231.685 96.3406 231.093C88.9868 230.333 81.5709 231.578 74.8068 234.707C68.0428 237.836 62.1585 242.744 57.7205 248.959C53.2826 255.174 50.4404 262.486 49.4678 270.191C48.4951 277.896 49.4247 285.735 52.167 292.953C54.5594 299.25 58.4669 305.114 64.0172 308.563C69.5675 312.011 76.898 312.673 82.4298 309.192" fill="#2F2E41"/>
<path d="M310.545 281.233H254.61C251.058 281.233 248.168 276.903 248.168 271.58C248.168 266.258 251.058 261.928 254.61 261.928H310.545C314.098 261.928 316.988 266.258 316.988 271.58C316.988 276.903 314.097 281.233 310.545 281.233Z" fill="white"/>
<path d="M460.883 302.293H253.173C251.845 302.293 250.572 301.738 249.633 300.751C248.695 299.763 248.167 298.424 248.167 297.028C248.167 295.631 248.695 294.292 249.633 293.305C250.572 292.317 251.845 291.763 253.173 291.763H460.883C462.21 291.763 463.483 292.317 464.422 293.305C465.36 294.292 465.888 295.631 465.888 297.028C465.888 298.424 465.36 299.763 464.422 300.751C463.483 301.738 462.21 302.293 460.883 302.293Z" fill="#E6E6E6"/>
<path d="M354.275 323.353H253.173C251.845 323.353 250.572 322.798 249.633 321.811C248.695 320.823 248.167 319.484 248.167 318.088C248.167 316.691 248.695 315.352 249.633 314.365C250.572 313.377 251.845 312.823 253.173 312.823H354.275C355.602 312.823 356.876 313.377 357.814 314.365C358.753 315.352 359.28 316.691 359.28 318.088C359.28 319.484 358.753 320.823 357.814 321.811C356.876 322.798 355.602 323.353 354.275 323.353Z" fill="#E6E6E6"/>
<path d="M659 614.245H0V616H659V614.245Z" fill="#3F3D56"/>
</g>
<defs>
<clipPath id="clip0">
<rect width="659" height="616" fill="white"/>
</clipPath>
</defs>
</svg>
