<svg width="70" height="80" viewBox="0 0 70 80" fill="none" xmlns="http://www.w3.org/2000/svg">
<path d="M64.7031 5H5.29688C2.375 5 0 7.375 0 10.2969V69.6875C0 72.625 2.375 75 5.29688 75H64.6875C67.6094 75 69.9844 72.625 69.9844 69.7031V10.2969C70 7.375 67.625 5 64.7031 5ZM37.125 61.1094C25.4688 62.2812 15.0625 53.7812 13.8906 42.125H28.6406V45.3125C28.6406 45.8906 29.1094 46.375 29.7031 46.375H40.3125C40.8906 46.375 41.375 45.9062 41.375 45.3125V34.7031C41.375 34.125 40.9062 33.6406 40.3125 33.6406H29.7031C29.125 33.6406 28.6406 34.1094 28.6406 34.7031V37.8906H13.8906C14.9844 27.0469 24.1094 18.7969 35 18.7969C45.8906 18.7969 55.0156 27.0469 56.1094 37.8906C57.2812 49.5312 48.7812 59.9375 37.125 61.1094Z" fill="black"/>
</svg>
